<?xml version="1.0" encoding="UTF-8" standalone="no"?>
<svg width="100px" height="45px" viewBox="0 0 100 45" version="1.1" xmlns="http://www.w3.org/2000/svg" xmlns:xlink="http://www.w3.org/1999/xlink" xmlns:sketch="http://www.bohemiancoding.com/sketch/ns">
    <!-- Generator: Sketch 3.0.4 (8053) - http://www.bohemiancoding.com/sketch -->
    <title>hifi-docs-icons 2</title>
    <desc>Created with Sketch.</desc>
    <defs></defs>
    <g id="Page-1" stroke="none" stroke-width="1" fill="none" fill-rule="evenodd" sketch:type="MSPage">
        <path d="M95.3,0 L4.3,0 C1.9,0 0,1.9 0,4.3 L0,17 C0,19.3 1.9,21.3 4.3,21.3 L95.3,21.3 C97.6,21.3 99.6,19.4 99.6,17 L99.6,4.3 C99.6,1.9 97.6,0 95.3,0 L95.3,0 Z M16.1,14.8 C13.8,14.8 11.8,12.9 11.8,10.5 C11.8,8.2 13.7,6.2 16.1,6.2 C18.4,6.2 20.4,8.1 20.4,10.5 C20.4,13 18.4,14.8 16.1,14.8 L16.1,14.8 Z M27.9,11.8 C27.2,11.8 26.6,11.3 26.6,10.5 C26.6,9.8 27.1,9.2 27.9,9.2 C28.7,9.2 29.2,9.7 29.2,10.5 C29.2,11.3 28.7,11.8 27.9,11.8 L27.9,11.8 Z M41.4,16.5 C38.1,16.5 35.4,13.8 35.4,10.5 C35.4,7.2 38.1,4.5 41.4,4.5 C44.7,4.5 47.4,7.2 47.4,10.5 C47.4,13.8 44.7,16.5 41.4,16.5 L41.4,16.5 Z M57.9,16.5 C54.6,16.5 52,13.8 52,10.6 C52,7.3 54.7,4.6 58,4.6 C61.3,4.6 64,7.3 64,10.6 C63.9,13.8 61.2,16.5 57.9,16.5 L57.9,16.5 Z M43.6,25.6 L29.1,40.1 L33.6,44.7 L66,44.7 L70.5,40.1 L56,25.6 C53,22.7 46.3,22.8 43.6,25.6 L43.6,25.6 Z" id="Kinect" fill="#3398CB" sketch:type="MSShapeGroup"></path>
    </g>
</svg>