<?xml version="1.0" encoding="utf-8"?>
<!-- Generator: Adobe Illustrator 18.0.0, SVG Export Plug-In . SVG Version: 6.00 Build 0)  -->
<!DOCTYPE svg PUBLIC "-//W3C//DTD SVG 1.1//EN" "http://www.w3.org/Graphics/SVG/1.1/DTD/svg11.dtd">
<svg version="1.1" id="Layer_1" xmlns="http://www.w3.org/2000/svg" xmlns:xlink="http://www.w3.org/1999/xlink" x="0px" y="0px"
	 viewBox="0 0 40.7 10.3" enable-background="new 0 0 40.7 10.3" xml:space="preserve">
<path id="Fill-1" sketch:type="MSShapeGroup" fill="#3398CB" d="M39.4,5.4H21.5v0.7c0.2,0,0.4,0,0.3,0c0.2,0,0.4,0.1,0.6,0.2
	c0.2,0.1,3.9,1.6,4.2,1.8c0.3,0.2,0.1,0.5,0,0.7c-0.1,0.3-0.4,1.1-0.5,1.2c-0.1,0.2-0.2,0.2-0.4,0.2h-5.3h-0.3h-5.3
	c-0.3,0-0.3,0-0.4-0.2c-0.1-0.2-0.4-1-0.5-1.2c-0.1-0.3-0.3-0.6,0-0.7c0.3-0.2,3.9-1.7,4.2-1.8c0.2-0.1,0.4-0.2,0.6-0.2
	c0,0,0.2,0,0.5,0V5.4h-18C0.6,5.4,0,4.9,0,4.1V1.3C0,0.6,0.6,0,1.3,0h38.1c0.7,0,1.3,0.6,1.3,1.3v2.8C40.7,4.9,40.1,5.4,39.4,5.4
	L39.4,5.4L39.4,5.4L39.4,5.4z M10.5,1.3c-0.7,0-1.3,0.6-1.3,1.3C9.2,3.4,9.8,4,10.5,4c0.7,0,1.3-0.6,1.3-1.3
	C11.9,1.9,11.3,1.3,10.5,1.3L10.5,1.3L10.5,1.3L10.5,1.3z M14.4,2.4c-0.1,0-0.3,0.1-0.3,0.3c0,0.2,0.1,0.3,0.3,0.3
	c0.1,0,0.3-0.1,0.3-0.3C14.7,2.5,14.6,2.4,14.4,2.4L14.4,2.4L14.4,2.4L14.4,2.4z M18.3,1.3c-0.7,0-1.3,0.6-1.3,1.3
	c0,0.7,0.6,1.3,1.3,1.3c0.7,0,1.3-0.6,1.3-1.3C19.6,1.9,19,1.3,18.3,1.3L18.3,1.3L18.3,1.3L18.3,1.3z M22.2,1.3
	c-0.7,0-1.3,0.6-1.3,1.3c0,0.7,0.6,1.3,1.3,1.3c0.7,0,1.3-0.6,1.3-1.3C23.6,1.9,23,1.3,22.2,1.3L22.2,1.3z"/>
</svg>
