<?xml version="1.0" encoding="utf-8"?>
<!-- Generator: Adobe Illustrator 18.0.0, SVG Export Plug-In . SVG Version: 6.00 Build 0)  -->
<!DOCTYPE svg PUBLIC "-//W3C//DTD SVG 1.1//EN" "http://www.w3.org/Graphics/SVG/1.1/DTD/svg11.dtd">
<svg version="1.1" id="Layer_1" xmlns="http://www.w3.org/2000/svg" xmlns:xlink="http://www.w3.org/1999/xlink" x="0px" y="0px"
	 viewBox="0 0 33.6 26.8" enable-background="new 0 0 33.6 26.8" xml:space="preserve">
<g>
	<g>
		<g>
			<g>
				<path fill="#3398CB" d="M23.2,21L21,16.6c-0.1-0.4-0.4-0.7-0.7-0.9c0.3-0.2,0.5-0.6,0.5-1V4.4c0-0.7-0.6-1.4-1.4-1.4H3.9
					C3.1,3,2.5,3.6,2.5,4.4v10.3c0,0.4,0.2,0.8,0.5,1c-0.3,0.2-0.6,0.6-0.7,0.9L0.1,21c-0.1,0.4-0.1,1.8,0.2,2.2
					c0.3,0.3,0.7,0.6,1.1,0.6h20.5c0.5,0,0.9-0.2,1.1-0.6C23.3,22.9,23.3,21.5,23.2,21z M21.9,22H1.4c-0.5,0-0.7-0.4-0.6-0.8L3,16.9
					c0.1-0.4,0.6-0.8,1.1-0.8h15c0.5,0,0.9,0.4,1.1,0.8l2.2,4.4C22.6,21.7,22.3,22,21.9,22z M3.3,4.4c0-0.3,0.3-0.6,0.6-0.6h15.5
					c0.3,0,0.6,0.3,0.6,0.6v10.3c0,0.3-0.3,0.6-0.6,0.6H3.9c-0.3,0-0.6-0.3-0.6-0.6V4.4z"/>
				<path fill="#3398CB" d="M14.5,19.2c0-0.2-0.2-0.4-0.4-0.4H9.2c-0.2,0-0.4,0.2-0.4,0.4l-0.4,1.6c0,0.1,0,0.2,0.1,0.3
					c0.1,0.1,0.2,0.1,0.3,0.1h5.7c0.1,0,0.2,0,0.3-0.1c0.1-0.1,0.1-0.2,0.1-0.3L14.5,19.2z"/>
				<path fill="#3398CB" d="M4.6,14.7h14.1c0.4,0,0.8-0.4,0.8-0.8V5.2c0-0.4-0.4-0.8-0.8-0.8H4.6c-0.4,0-0.8,0.4-0.8,0.8v8.7
					C3.8,14.3,4.1,14.7,4.6,14.7z"/>
			</g>
		</g>
	</g>
	<path fill="#3398CB" d="M32.5,13.1h-0.2v0c0,0,0-0.1-0.1-0.1h-1.1c0,0-0.1,0-0.1,0.1v0h-3.2c-0.6,0-1.1,0.5-1.1,1.1v0.1h0
		c0,0-0.1,0-0.1,0.1v0.5c0,0,0,0.1,0.1,0.1h0v0.9h0c0,0-0.1,0-0.1,0.1v0.4c0,0,0,0.1,0.1,0.1h0V17h0c0,0-0.1,0-0.1,0.1v0.4
		c0,0,0,0.1,0.1,0.1h0v8.2c0,0.6,0.5,1.1,1.1,1.1h4.6c0.6,0,1.1-0.5,1.1-1.1V14.1C33.6,13.5,33.1,13.1,32.5,13.1z M29.6,14.1h1
		c0.1,0,0.1,0.1,0.1,0.1c0,0.1-0.1,0.1-0.1,0.1h-1c-0.1,0-0.1-0.1-0.1-0.1C29.5,14.2,29.5,14.1,29.6,14.1z M29.1,14.1
		c0.1,0,0.1,0.1,0.1,0.1c0,0.1-0.1,0.1-0.1,0.1c-0.1,0-0.1-0.1-0.1-0.1C29,14.2,29,14.1,29.1,14.1z M30.1,26.2
		c-0.4,0-0.7-0.3-0.7-0.7c0-0.4,0.3-0.7,0.7-0.7c0.4,0,0.7,0.3,0.7,0.7C30.8,25.9,30.5,26.2,30.1,26.2z M33.1,24.3h-6.1v-9.1h6.1
		V24.3z"/>
	<g>
		<rect x="25.1" y="1.6" fill="#3398CB" width="6.8" height="6.8"/>
		<rect x="26" y="8.9" fill="#3398CB" width="0.5" height="1.1"/>
		<rect x="27" y="8.9" fill="#3398CB" width="0.5" height="1.1"/>
		<rect x="27.9" y="8.9" fill="#3398CB" width="0.5" height="1.1"/>
		<rect x="28.8" y="8.9" fill="#3398CB" width="0.5" height="1.1"/>
		<rect x="29.7" y="8.9" fill="#3398CB" width="0.5" height="1.1"/>
		<rect x="30.6" y="8.9" fill="#3398CB" width="0.5" height="1.1"/>
		<rect x="31.5" y="8.9" fill="#3398CB" width="0.5" height="1.1"/>
		<rect x="25.1" y="8.9" fill="#3398CB" width="0.5" height="1.1"/>
		<rect x="26" y="0" fill="#3398CB" width="0.5" height="1.1"/>
		<rect x="27" y="0" fill="#3398CB" width="0.5" height="1.1"/>
		<rect x="27.9" y="0" fill="#3398CB" width="0.5" height="1.1"/>
		<rect x="28.8" y="0" fill="#3398CB" width="0.5" height="1.1"/>
		<rect x="29.7" y="0" fill="#3398CB" width="0.5" height="1.1"/>
		<rect x="30.6" y="0" fill="#3398CB" width="0.5" height="1.1"/>
		<rect x="31.5" y="0" fill="#3398CB" width="0.5" height="1.1"/>
		<rect x="25.1" y="0" fill="#3398CB" width="0.5" height="1.1"/>
		<rect x="23.5" y="2.5" fill="#3398CB" width="1.1" height="0.5"/>
		<rect x="23.5" y="3.4" fill="#3398CB" width="1.1" height="0.5"/>
		<rect x="23.5" y="4.3" fill="#3398CB" width="1.1" height="0.5"/>
		<rect x="23.5" y="5.2" fill="#3398CB" width="1.1" height="0.5"/>
		<rect x="23.5" y="6.1" fill="#3398CB" width="1.1" height="0.5"/>
		<rect x="23.5" y="7.1" fill="#3398CB" width="1.1" height="0.5"/>
		<rect x="23.5" y="8" fill="#3398CB" width="1.1" height="0.5"/>
		<rect x="23.5" y="1.6" fill="#3398CB" width="1.1" height="0.5"/>
		<rect x="32.4" y="2.5" fill="#3398CB" width="1.1" height="0.5"/>
		<rect x="32.4" y="3.4" fill="#3398CB" width="1.1" height="0.5"/>
		<rect x="32.4" y="4.3" fill="#3398CB" width="1.1" height="0.5"/>
		<rect x="32.4" y="5.2" fill="#3398CB" width="1.1" height="0.5"/>
		<rect x="32.4" y="6.1" fill="#3398CB" width="1.1" height="0.5"/>
		<rect x="32.4" y="7.1" fill="#3398CB" width="1.1" height="0.5"/>
		<rect x="32.4" y="8" fill="#3398CB" width="1.1" height="0.5"/>
		<rect x="32.4" y="1.6" fill="#3398CB" width="1.1" height="0.5"/>
	</g>
</g>
</svg>
