<?xml version="1.0" encoding="utf-8"?>
<!-- Generator: Adobe Illustrator 18.0.0, SVG Export Plug-In . SVG Version: 6.00 Build 0)  -->
<!DOCTYPE svg PUBLIC "-//W3C//DTD SVG 1.1//EN" "http://www.w3.org/Graphics/SVG/1.1/DTD/svg11.dtd">
<svg version="1.1" id="Layer_1" xmlns="http://www.w3.org/2000/svg" xmlns:xlink="http://www.w3.org/1999/xlink" x="0px" y="0px"
	 viewBox="0 0 30.5 37.8" enable-background="new 0 0 30.5 37.8" xml:space="preserve">
<g>
	<path fill="#333333" d="M26.6,17.5c0.4-1.7,0.2-3.1-0.4-3.3c-0.6-0.1-1.4,1.1-1.7,2.8c-0.1-1.5-0.1-2.6,0-3.5l0,0
		c-1.9-0.6-3.6-2.2-4.6-4c-0.9,1.6-2.9,3.5-5.6,5.1c-0.1,0.1-0.2,0.1-0.3,0.2c1.5,1.4,0.9,2.3-0.9,0.5c-0.5,0.2-0.9,0.5-1.4,0.7
		c0.3,0,0.6,0.1,1,0.2c1.3,0.4,1.6,1.1,1.9,2.1c-0.2-0.4-0.8-0.9-1.3-1.1c0.1,0.1,0.1,0.2,0.1,0.4c0,0.5-0.4,0.9-0.9,0.9
		c-0.5,0-0.9-0.4-0.9-0.9c0-0.3,0.2-0.6,0.4-0.8c-0.5-0.1-0.9,0-1.6,0.1c0.2,0.5,0.5,1.2,1.1,1.6c-0.8-0.3-1.4-1.1-1.7-1.8
		c-0.5,0.1-0.9,0.2-1.4,0.3c-0.9,0.2-1.7,0.2-2.2,0c0,0.2,0.1,0.4,0.1,0.6c0.4,1.7,1.2,3,1.8,2.9c0.3-0.1,0.5-0.4,0.6-1
		c0.1,1,0.3,2.2,0.5,3.6c0.3,2.6,6.3,7.2,6.3,7.2h2.3c0,0,6-4.6,6.3-7.2c0.2-1.4,0.3-2.6,0.5-3.6c0.1,0.6,0.3,0.9,0.6,1
		C25.5,20.5,26.2,19.2,26.6,17.5L26.6,17.5z M12.5,17.2c0,0.2,0.1,0.3,0.3,0.3c0.2,0,0.3-0.1,0.3-0.3c0-0.2-0.1-0.3-0.3-0.3
		C12.6,16.9,12.5,17,12.5,17.2L12.5,17.2z M11.5,1.7c5.1-2.6,9.6-2.1,10.3,1c1-0.8,2-1,3-0.5c3.9,2,5.6,14.6,5.7,27.9
		c0,2.6,0,4.9,0,7c-2.6-0.8-6.2-1.9-7-2.3c-2-1-2.3-4.6-2.3-7.4c-1.3,1.3-2.8,2.5-3.5,3h-2.6c0,0-1.6-1.2-3.2-2.7
		c-0.2-0.2-0.3-0.3-0.5-0.5c0,2.8-0.3,6.5-2.3,7.5c-1.1,0.5-7,2.3-9.1,3C0.4,20.7,2.5,6.3,11.5,1.7L11.5,1.7z M17.8,26.6
		c0.1,0,0.1-0.1,0.1-0.1c0-0.1-0.1-0.1-0.2-0.1c-0.1,0-0.1,0.1-0.1,0.1C17.7,26.6,17.8,26.6,17.8,26.6L17.8,26.6z M17.6,26.8
		c0.1,0,0.1-0.1,0.1-0.2c0-0.1-0.1-0.1-0.2-0.1l-0.1,0c-0.1,0-0.1,0.1-0.1,0.2C17.3,26.8,17.4,26.8,17.6,26.8L17.6,26.8L17.6,26.8z
		 M16.3,25.8L16.3,25.8c0.8,0,1.5-0.4,0.9-0.4h-0.9h-0.9C14.9,25.4,15.6,25.8,16.3,25.8L16.3,25.8z M18.7,24.5c0.7,0.2,1.1,0,1.1,0
		c-0.2,0.1-0.9,0.7-0.9,0.7l0,0.2c0,0.9-1.1,1.7-2.5,1.7c-1.4,0-2.5-0.8-2.5-1.7l0-0.2c0,0-0.8-0.6-0.9-0.7c0,0,0.5,0.2,1.1,0
		c1.4-0.4,2.1-0.1,2.3,0.2C16.6,24.4,17.2,24.1,18.7,24.5L18.7,24.5z M20.1,16.1c1.5-0.5,2,0.1,3.4-0.6c0,0-0.7,2.3-2.2,2.8
		c0.6-0.4,0.9-1.1,1.1-1.6c-0.6-0.1-1.1-0.1-1.6-0.1c0.2,0.2,0.4,0.4,0.4,0.8c0,0.5-0.4,0.9-0.9,0.9c-0.5,0-0.9-0.4-0.9-0.9
		c0-0.1,0-0.3,0.1-0.4c-0.5,0.3-1.1,0.7-1.3,1.1C18.5,17.2,18.8,16.5,20.1,16.1L20.1,16.1z M20.9,17.2c0-0.2-0.1-0.3-0.3-0.3
		c-0.2,0-0.3,0.1-0.3,0.3c0,0.2,0.1,0.3,0.3,0.3C20.8,17.5,20.9,17.4,20.9,17.2L20.9,17.2z M20.8,13.4c1.7-0.9,2.7,0.6,2.7,0.6
		s-1.7-1.2-3.1,0.4C17.5,18.1,16.7,15.5,20.8,13.4L20.8,13.4z"/>
</g>
</svg>
