<?xml version="1.0" encoding="utf-8"?>
<!-- Generator: Adobe Illustrator 18.0.0, SVG Export Plug-In . SVG Version: 6.00 Build 0)  -->
<!DOCTYPE svg PUBLIC "-//W3C//DTD SVG 1.1//EN" "http://www.w3.org/Graphics/SVG/1.1/DTD/svg11.dtd">
<svg version="1.1" id="Layer_1" xmlns="http://www.w3.org/2000/svg" xmlns:xlink="http://www.w3.org/1999/xlink" x="0px" y="0px"
	 viewBox="0 0 42.9 23.3" enable-background="new 0 0 42.9 23.3" xml:space="preserve">
<path fill="#3398CB" d="M42.9,12.3l-9.5-4.1v2.9H14.7L19.4,5h3c0.5,1.5,1.9,2.6,3.6,2.6c2.1,0,3.8-1.7,3.8-3.8S28,0,25.9,0
	c-1.7,0-3.1,1.1-3.6,2.6h-4.1l-6.4,8.5h-1.4C9.8,8.8,7.8,7.1,5.3,7.1C2.4,7.1,0,9.4,0,12.3c0,2.9,2.4,5.3,5.3,5.3
	c2.5,0,4.6-1.7,5.1-4.1h6.2l5.5,7.9h3.6v1.8h6v-6h-6v1.8h-2.4l-3.9-5.6h14v2.9L42.9,12.3z"/>
</svg>
