<?xml version="1.0" encoding="utf-8"?>
<!-- Generator: Adobe Illustrator 18.0.0, SVG Export Plug-In . SVG Version: 6.00 Build 0)  -->
<!DOCTYPE svg PUBLIC "-//W3C//DTD SVG 1.1//EN" "http://www.w3.org/Graphics/SVG/1.1/DTD/svg11.dtd">
<svg version="1.1" id="Layer_1" xmlns="http://www.w3.org/2000/svg" xmlns:xlink="http://www.w3.org/1999/xlink" x="0px" y="0px"
	 viewBox="0 0 43.7 29.4" enable-background="new 0 0 43.7 29.4" xml:space="preserve">
<g>
	<path fill-rule="evenodd" clip-rule="evenodd" fill="#3398CB" d="M0,22.1c0.1,0,0.2,0.1,0.2,0.2c0,0,0.1,0,0.1,0
		c0.5-0.3,0.5-0.3,0.8,0c0.2,0.2,0.5,0.2,0.6,0.1c0.3-0.3,0.8-0.4,1.1-0.1c0.2,0.3,0.4,0.2,0.6,0.1c0.4-0.3,0.8-0.2,0.9,0.1l0,0l0,0
		c0-0.2,0.2-0.3,0.3-0.5c0.2,0.3,0.8,0,0.8,0.7c0.1-0.3,0.2-0.5,0.2-0.8c0.1,0.2,0.2,0.4,0.2,0.4c0.3-0.1,0.6-0.3,0.8,0.2
		c0,0.1,0.1,0,0.2-0.1c0.2-0.5,0.6-0.2,0.9-0.2c0.4,0,0.4,0.6,0.5,0.6c0.6-0.1,0.2,0.4,0.3,0.6c0.1,0,0.1,0.1,0.2,0.1
		c0.2-0.4,0-0.9,0.3-1.3c0.1,0.2,0.1,0.4,0.4,0.4c0.2,0,0.1-0.3,0.3-0.4c0.1,0.2,0,0.4,0.1,0.5c0.2,0,0.1-0.2,0.2-0.3
		c0.3,0.2,0,0.5,0.2,0.8c0.1-0.3,0-0.6,0.2-0.8c0,0.4,0.6,0.3,0.6,0.7c0,0.1,0,0.3,0.2,0.2c0.1,0.3,0.7,0.3,0.5,0.7
		c0,0.1,0,0.1,0.1,0.1c0.2-0.1,0-0.3,0.2-0.4c0,1.3-0.1,2.5,0.2,3.8c0.2-0.7,0-1.4,0.2-2.1c0.2,0.1,0,0.3,0.2,0.5c0-0.5,0-1.1,0-1.6
		c0,0,0.1,0,0.1,0c0,0.4,0,0.9,0,1.3c0,0,0.1,0,0.1,0c-0.1-0.9,0.1-1.7,0.2-2.6c0-0.1-0.1-0.2,0.1-0.3c0.2,0,0.2,0.1,0.2,0.2
		c0.1,0.3,0,0.6,0.2,0.8c0.1-0.4,0-0.8,0.1-1.2c0-0.1,0.1-0.2,0.2-0.2c0.1,0,0.2,0,0.3,0.2c0,0.1,0,0.2,0.2,0.2c0-0.2,0-0.3,0-0.5
		c0-0.2,0.3-0.3,0.4-0.2c0.1,0.3,0.3,0.4,0.4,0.7c0.2-0.2,0.3-0.4,0.5-0.7c0.2,0.6,0.5,1.1,0.5,1.7c0.1-0.4,0-0.8,0.2-1.2
		c0.2,0.3,0,0.7,0.3,0.9c0-0.4,0.4-0.6,0.4-1c0.2,0,0-0.6,0.4-0.3c0.1-0.3,0.2-0.3,0.4,0c0,0.1,0.1-0.1,0.1-0.1
		c0.1-0.2,0.2-0.1,0.3,0c0.3,0.2,0.3,0.7,0.5,0.8c0.3,0.2,0.3,0.4,0.3,0.6c0,0.1,0,0.2,0.1,0.2c0.3-0.2,0.1-0.6,0.3-1
		c0,0.4,0,0.7,0,1c0.3,0,0.1-0.4,0.4-0.4c0.1,0.3-0.1,0.6,0.3,0.8c0.4,0.4,0.2,0.9,0.2,1.4c0.1,0.2,0.1,0.4,0.1,0.6
		c0,0.7,0,1.5,0.1,2.2l0,0l0,0c0.1-1,0-2,0.3-2.9c0.3-0.9,0.1-1.8,0.5-2.7c0.1,0.8,0.1,1.7,0.3,2.5c0.1-0.6,0.3-1,0.3-1.5
		c0-0.4,0-0.9,0.4-1.2c0.1-0.2,0.5-0.2,0.4-0.6c0.4,0.6,0.3,1.1,0.3,1.6c0.1,0,0.2,0.1,0.3,0.2c0.1-0.2-0.1-0.3,0.2-0.6
		c0.1,0.8,0,1.5,0.1,2.3c0-0.9,0.4-1.7,0.4-2.6c0-0.4,0.2-0.6,0.5-0.8c0,0.2,0,0.3,0,0.5c0.1-0.2,0.2-0.4,0.4-0.2
		c0.1,0.2,0.4,0.3,0.3,0.6c0,0.1,0,0.2,0,0.3c0.4-0.2,0.3,0.3,0.5,0.4c0.2-0.1,0.1-0.4,0.2-0.5c0.2,0.4,0.3,0.7,0.3,1.1
		c0,0.1,0.1,0.2,0.2,0.2c0.1,0.1,0.1,0.2,0.1,0.3c0,0.7,0.1,1.4,0.1,2.1c0,0.8,0,1.6,0,2.3c0.1,0,0.1,0,0.2,0
		c0.2-1.8,0.2-3.6,0.3-5.4c0,0.3,0,0.6,0,1c0.2,0.3,0.1,0.7,0.1,1c0.2-0.7,0.2-1.4,0.2-2.2c0.2,0.1,0.2,0.3,0.2,0.4c0,0,0.1,0,0.1,0
		c0.1-0.2,0.2-0.5,0.2-0.8c0-0.3,0.2-0.5,0.4-0.7c0,0.5,0,0.9,0,1.3c0.4-0.1,0.3-0.4,0.3-0.7c0-0.3,0-0.3,0.3-0.3
		c0.1,0,0.1-0.1,0.1-0.2c0-0.2,0.1-0.3,0.1-0.5c0.1,0.1,0,0.3,0.1,0.3c0.7,0.1,0.1,0.9,0.6,1.1c0.1,1,0.1,1.9,0.2,2.9
		c0,0,0.1,0,0.1,0c0-0.1,0-0.2,0-0.3c0-0.4,0-0.8,0-1.1c0-0.5,0-0.9,0-1.4c0,0,0,0,0.1,0c0,0.5,0,0.9,0,1.4c0.2,0.4,0.1,0.8,0.1,1.1
		c0,0.5,0,1,0,1.5c0.1,0,0.1,0,0.2,0c0-0.4,0.1-0.8,0.1-1.2c0-0.7,0.1-1.3,0.3-2c0-0.4,0-0.9,0-1.4c0.2,0.2,0,0.4,0.2,0.6
		c0.2-0.2,0.4-0.4,0.4-0.7c0,0.3,0,0.6,0.2,0.9c0-0.4,0-0.9,0.2-1.3c0.2,0.3,0.1,0.6,0.3,1c0-0.2,0-0.4,0-0.6
		c0.1,0.2,0.3,0.4,0.3,0.6c0,0,0.1,0.1,0.1,0.1c0.2-0.4,0-0.9,0.5-1.2c0.1-0.1,0.1-0.3,0.3-0.2c0.2,0.1,0.5-0.1,0.5,0.3
		c0.2-0.1,0.1-0.3,0.2-0.4c0.5,0.1,0.5,0.6,0.5,1.1c0.2-0.4,0-0.7,0.2-1c0.2,0.1,0.1,0.3,0.2,0.4c0-0.1,0.1-0.2,0.3-0.2
		c0.1,0,0.1-0.1,0.1-0.1c-0.1-0.4,0.3-0.2,0.4-0.2c0.4,0.1,0.7,0.3,1,0.6c0.1-0.3,0-0.9,0.6-0.5c0.1,0.1,0.5,0.1,0.7,0
		c0.5-0.3,0.6,0,0.6,0.4c0.3-0.6,0.2,0.2,0.4,0c0.1-0.1-0.1-0.3,0.1-0.4c0-0.2,0.2-0.2,0.3-0.1c0.3-0.1,0.5-0.1,0.8-0.2
		c0.1,0.2,0,0.4,0.1,0.5c0-0.3,0.2-0.5,0.5-0.4c0.5,0.3,0.4,0.3,0.5-0.1c0.1,0.1,0,0.4,0.1,0.4c0.3,0,0.2-0.4,0.4-0.4
		c0.2,0.1,0.1,0.4,0.3,0.4c0.1-0.1-0.1-0.3,0.1-0.3c0.2,0.1,0.1,0.3,0.2,0.5c0,0,0.1,0.1,0.2,0.1c0.1,0,0.1,0,0.1-0.1
		c-0.1-0.5,0.3-0.2,0.4-0.4c0-0.8,0-1.7,0-2.5c-0.3,0.1-0.5,0.2-0.4-0.3c-0.7,0.7-1,0.7-1.3,0.2c0,0.1,0,0.3-0.1,0.5
		c0-0.2-0.1-0.3-0.1-0.4c0,0,0-0.1,0-0.1c0,0,0,0.1-0.1,0.1c-0.4,0.3-0.7,0.3-0.9-0.1c0,0.3-0.4,0.4-0.5,0.6
		c-0.1-0.3-0.5-0.1-0.6-0.3c-0.2-0.1-0.2-0.3-0.3-0.4c-0.4,0.3-1,0.4-1.5,0.5c-0.5,0.1-0.8,0.1-0.9-0.5c-0.2,0.1-0.1,0.3-0.2,0.5
		c0-0.1,0-0.1,0-0.2c0-0.1-0.1,0-0.1,0c-0.4,0.4-0.7,0.4-1,0c-0.1-0.1-0.1,0-0.1,0c-0.5,0.1-0.5,0.1-0.5-0.4c0-0.1,0-0.2,0-0.4
		c-0.2,0.3-0.1,0.5-0.2,0.7c0,0.1,0,0.3-0.1,0.3c-0.1-0.1-0.4,0.1-0.5-0.2c0-0.1,0-0.3-0.1-0.3c-0.2,0,0.1,0.3-0.2,0.3
		c-0.6,0.1-0.9-0.1-1-0.7c0-0.2,0-0.4-0.1-0.6c-0.3,0.1-0.2,0.4-0.4,0.6c0-0.3,0-0.5,0-0.7c-0.1,0.4-0.2,0.8-0.3,1.2
		c-0.2-0.4-0.2-0.8-0.2-1.2c-0.3,0.2-0.1,0.5-0.2,0.8c0-0.2,0-0.3-0.1-0.6c-0.1,0.2-0.1,0.3-0.2,0.4c0-0.4,0-0.8-0.3-1.1
		c-0.2-0.3-0.2-0.7-0.2-1.1c-0.1-0.8,0.1-1.6-0.2-2.3c-0.2,0.6-0.1,1.1-0.1,1.7c0,0.3,0.1,0.5-0.2,0.9c0-0.5,0-1,0-1.4
		c0,0,0-0.1,0-0.1c0,0-0.1,0-0.1,0c0,0.2,0,0.4,0,0.6c-0.1,1,0,1.9-0.3,2.9c-0.1,0.2-0.3,0.4-0.3,0.7c0,0-0.1-0.2-0.2,0
		c0,0,0,0.2-0.1,0c0-0.1,0-0.3-0.1-0.3c-0.5-0.1-0.4-0.5-0.4-0.8c0-0.2,0-0.3,0-0.5c0-0.1-0.1-0.1-0.2-0.1c-0.1,0-0.1,0.1-0.1,0.2
		c0,0.4,0,0.8,0,1.2c0,0.1,0,0.3-0.2,0.3c-0.2,0-0.1-0.1-0.1-0.2c-0.1-0.6-0.2-1.3-0.4-1.9c-0.2,0.3-0.1,0.7-0.3,1.1
		c0-0.7,0-1.3-0.1-2c-0.2,0.3,0,0.6-0.1,1c0,0.2,0,0.4-0.1,0.6c0,0.1,0,0.2,0,0.3c-0.1-1.4-0.1-2.9-0.2-4.3c-0.2-0.3,0.1-0.7-0.2-1
		c-0.1,0.2-0.1,0.5-0.1,0.8c0,1.7-0.1,3.3-0.7,4.9c-0.1,0-0.2-0.3-0.2-0.2c-0.1,0.2-0.2,0.5-0.5,0.4c0.1,0.5-0.5,0.6-0.5,1
		c-0.2-0.1-0.1-0.4-0.2-0.5c-0.1,0.1,0,0.4-0.2,0.4c-0.2,0-0.3-0.1-0.4-0.3c0-0.1-0.1-0.2-0.1-0.2c0.1-0.9-0.4-1.8-0.3-2.7
		c0,0-0.1,0-0.1,0c0,0.6,0,1.3,0,1.9c-0.2-0.2-0.2-0.3-0.2-0.5c-0.1,0-0.2-0.1-0.3-0.1c-0.1,0.6,0.2,1.3-0.3,2c0-0.2,0-0.3,0-0.3
		C22,19.3,22,18.7,22,18.1c0-0.5,0.1-1.1-0.3-1.5c-0.1,0.8-0.1,1.5-0.1,2.3c0,0.1,0.1,0.3-0.1,0.3c-0.2,0-0.2-0.1-0.2-0.3
		c0-0.3,0-0.6,0-0.9c-0.3-1.4-0.4-2.8-0.5-4.3c0,0-0.1,0-0.1,0c0,0.7-0.1,1.4-0.1,2.1c0,0.3-0.1,0.6-0.1,0.9c0,0.7-0.5,1.3-0.5,2
		c0,0.1,0,0.1,0,0c-0.1-0.1,0-0.3-0.2-0.4c-0.3,0.2,0,0.7-0.2,1c-0.1-0.3,0.1-0.7-0.3-1c0.3,0.5-0.2,0.5-0.3,0.8
		c0,0.4-0.1,0.8-0.6,0.8c-0.3,0-0.6,0-0.7,0.3c0,0,0,0,0,0c-0.2-0.3-0.6-0.3-0.6-0.8c0-0.3-0.1-0.5-0.3-0.9
		c-0.1,0.5-0.1,0.9-0.2,1.3c0-0.4-0.3-0.8-0.4-1.3c0.1,0.6-0.2,1.1-0.5,1.6c0.1-0.6-0.5-0.3-0.7-0.6c0,0.3-0.2,0.5-0.4,0.7
		c-0.1-0.3-0.1-0.5-0.1-0.8c-0.2,0.2-0.3,0.3-0.5,0.4c-0.4-0.3-0.2-0.8-0.3-1.2c0,0-0.1,0-0.1,0c-0.2,0.1,0,0.5-0.3,0.5
		c-0.3-0.1-0.1-0.4-0.1-0.6C13,17.8,13,17,13,16.3c0,0,0,0-0.1,0c0,0.6,0,1.2,0,1.8c0,0-0.1,0-0.1,0c0-0.8,0-1.6,0-2.3
		c0,0-0.1,0-0.1,0c0,0.3,0,0.6-0.1,1c-0.1,0-0.1,0-0.2,0c0-0.6,0-1.2,0-1.9c-0.3,0-0.2,0.2-0.2,0.3c-0.1,0.9-0.1,1.8-0.1,2.6
		c0,0.3,0.1,0.7-0.4,0.8c-0.2,0-0.1,0.7-0.4,0.1c0,0-0.2,0.1-0.2,0.1c0,0.5-0.4,0.6-0.6,0.9c-0.3-0.2,0-0.5-0.2-0.8
		c-0.1,0.2-0.1,0.4,0,0.7c0,0.2-0.1,0.3-0.3,0.3c-0.1,0-0.2,0.2-0.3,0c-0.1-0.7-0.4,0-0.5-0.1C9.1,19.5,9.1,19.3,9,19
		c-0.1-0.3,0-0.6-0.1-0.9c-0.3,0.2,0,0.6-0.2,0.8c-0.1,0.2,0,0.5-0.2,0.7c0-0.2,0-0.3-0.1-0.4c-0.2,0-0.2,0.2-0.2,0.3
		c-0.1,0.4-0.1,0.4-0.3,0.4c-0.3,0.1-0.6,0.2-0.8,0c-0.4-0.4-0.7,0-1,0c-0.3,0-0.5,0.3-0.6-0.3c-0.2,0.2-0.2,0.6-0.6,0.2
		c-0.1-0.1-0.6,0-1,0c-0.2,0-0.5-0.2-0.6-0.1c-0.4,0.1-0.8,0-1.1,0.1c-0.5,0.2-0.5-0.1-0.5-0.4c-0.1,0.4-0.5,0.1-0.7,0.4
		c-0.3,0.4-0.6,0-1,0.1c0,0-0.1,0-0.1,0L0,22.1z"/>
	<path fill-rule="evenodd" clip-rule="evenodd" fill="#3398CB" d="M43.7,5.3c-0.1,0-0.2-0.1-0.2-0.1c0,0-0.1,0-0.1,0
		c-0.5,0.2-0.5,0.2-0.8,0C42.3,5,42,5,41.9,5c-0.3,0.2-0.8,0.3-1.1,0.1c-0.2-0.2-0.4-0.2-0.6,0c-0.4,0.2-0.8,0.1-0.9-0.1l0,0l0,0
		c0,0.2-0.2,0.2-0.3,0.4c-0.2-0.2-0.8,0-0.8-0.5C38.1,5.1,38,5.2,38,5.4c-0.1-0.1-0.2-0.3-0.2-0.3C37.5,5.2,37.2,5.3,37,5
		c0,0-0.1,0-0.2,0.1c-0.2,0.4-0.6,0.2-0.9,0.1c-0.4,0-0.4-0.4-0.5-0.4c-0.6,0.1-0.2-0.3-0.3-0.4c-0.1,0-0.1-0.1-0.2-0.1
		c-0.2,0.3,0,0.6-0.3,0.9c-0.1-0.1-0.1-0.3-0.4-0.3c-0.2,0-0.1,0.2-0.3,0.3c-0.1-0.1,0-0.3-0.1-0.4c-0.2,0-0.1,0.2-0.2,0.2
		c-0.3-0.1,0-0.4-0.2-0.6c-0.1,0.2,0,0.4-0.2,0.6c0-0.3-0.6-0.2-0.6-0.5c0-0.1,0-0.2-0.2-0.1c-0.1-0.2-0.7-0.2-0.5-0.5
		c0,0,0-0.1-0.1-0.1c-0.2,0,0,0.2-0.2,0.3c0-0.9,0.1-1.8-0.2-2.7c-0.2,0.5,0,1-0.2,1.5c-0.2-0.1,0-0.2-0.2-0.3c0,0.4,0,0.8,0,1.1
		c0,0-0.1,0-0.1,0c0-0.3,0-0.6,0-1c0,0-0.1,0-0.1,0c0.1,0.6-0.1,1.3-0.2,1.9c0,0.1,0.1,0.2-0.1,0.2c-0.2,0-0.2-0.1-0.2-0.2
		c-0.1-0.2,0-0.4-0.2-0.6c-0.1,0.3,0,0.6-0.1,0.9c0,0.1-0.1,0.2-0.2,0.2c-0.1,0-0.2,0-0.3-0.1c0-0.1,0-0.2-0.2-0.2
		c0,0.1,0,0.2,0,0.3c0,0.1-0.3,0.2-0.4,0.1c-0.1-0.2-0.3-0.3-0.4-0.5C28.3,4.9,28.2,5,28,5.2c-0.2-0.4-0.5-0.8-0.5-1.2
		c-0.1,0.3,0,0.6-0.2,0.9c-0.2-0.2,0-0.5-0.3-0.7c0,0.3-0.4,0.4-0.4,0.7c-0.2,0,0,0.5-0.4,0.2c-0.1,0.2-0.2,0.2-0.4,0
		c0-0.1-0.1,0-0.1,0.1c-0.1,0.1-0.2,0.1-0.3,0C25,5.1,25,4.7,24.8,4.6c-0.3-0.1-0.3-0.3-0.3-0.4c0-0.1,0-0.2-0.1-0.2
		c-0.3,0.2-0.1,0.4-0.3,0.7c0-0.3,0-0.5,0-0.8c-0.3,0-0.1,0.3-0.4,0.3c-0.1-0.2,0.1-0.4-0.3-0.6c-0.4-0.3-0.2-0.7-0.2-1
		c-0.1-0.1-0.1-0.3-0.1-0.5c0-0.5,0-1.1-0.1-1.6l0,0l0,0c-0.1,0.7,0,1.4-0.3,2.1c-0.3,0.6-0.1,1.3-0.5,1.9C22.1,4,22.2,3.4,22,2.8
		c-0.1,0.4-0.3,0.7-0.3,1.1c0,0.3,0,0.6-0.4,0.9c-0.1,0.1-0.5,0.1-0.4,0.4c-0.4-0.4-0.3-0.8-0.3-1.2c-0.1,0-0.2-0.1-0.3-0.1
		c-0.1,0.1,0.1,0.3-0.2,0.4c-0.1-0.6,0-1.1-0.1-1.6c0,0.7-0.4,1.3-0.4,1.9c0,0.3-0.2,0.4-0.5,0.6c0-0.1,0-0.2,0-0.3
		C19,5.1,18.9,5.2,18.7,5c-0.1-0.1-0.4-0.2-0.3-0.4c0-0.1,0-0.2,0-0.3c-0.4,0.1-0.3-0.2-0.5-0.3c-0.2,0.1-0.1,0.3-0.2,0.4
		c-0.2-0.3-0.3-0.5-0.3-0.8c0-0.1-0.1-0.2-0.2-0.2C17,3.4,17,3.3,17,3.2c0-0.5-0.1-1-0.1-1.5c0-0.6,0-1.1,0-1.7c-0.1,0-0.1,0-0.2,0
		c-0.2,1.3-0.2,2.6-0.3,3.9c0-0.2,0-0.5,0-0.7c-0.2-0.2-0.1-0.5-0.1-0.8c-0.2,0.5-0.2,1-0.2,1.6c-0.2-0.1-0.2-0.2-0.2-0.3
		c0,0-0.1,0-0.1,0c-0.1,0.2-0.2,0.4-0.2,0.6c0,0.2-0.2,0.3-0.4,0.5c0-0.4,0-0.7,0-1c-0.4,0.1-0.3,0.3-0.3,0.5c0,0.2,0,0.2-0.3,0.2
		c-0.1,0-0.1,0.1-0.1,0.1c0,0.1-0.1,0.2-0.1,0.4c-0.1-0.1,0-0.2-0.1-0.2c-0.7-0.1-0.1-0.7-0.6-0.8c-0.1-0.7-0.1-1.4-0.2-2.1
		c0,0-0.1,0-0.1,0c0,0.1,0,0.1,0,0.2c0,0.3,0,0.5,0,0.8c0,0.3,0,0.7,0,1c0,0,0,0-0.1,0c0-0.3,0-0.7,0-1c-0.2-0.3-0.1-0.5-0.1-0.8
		c0-0.4,0-0.7,0-1.1c-0.1,0-0.1,0-0.2,0c0,0.3-0.1,0.6-0.1,0.9c0,0.5-0.1,1-0.3,1.5c0,0.3,0,0.6,0,1c-0.2-0.1,0-0.3-0.2-0.4
		C12.2,4.2,12,4.3,12,4.5c0-0.2,0-0.4-0.2-0.6c0,0.3,0,0.6-0.2,1c-0.2-0.2-0.1-0.5-0.3-0.7c0,0.2,0,0.3,0,0.5
		c-0.1-0.2-0.3-0.3-0.3-0.4c0,0-0.1-0.1-0.1-0.1c-0.2,0.3,0,0.7-0.5,0.9c-0.1,0-0.1,0.2-0.3,0.2C9.8,5.1,9.5,5.2,9.5,4.9
		C9.3,5,9.4,5.2,9.3,5.2C8.7,5.2,8.8,4.8,8.7,4.5C8.5,4.7,8.7,5,8.5,5.2C8.4,5.1,8.5,5,8.4,4.9C8.3,5,8.2,5,8.1,5C8,5,8,5.1,8,5.1
		c0.1,0.3-0.3,0.2-0.4,0.2C7.3,5.2,6.9,5,6.6,4.8C6.5,5,6.7,5.4,6,5.2c-0.1-0.1-0.5-0.1-0.7,0c-0.5,0.2-0.6,0-0.6-0.3
		c-0.3,0.4-0.2-0.1-0.4,0C4.1,4.9,4.2,5,4.1,5.1c0,0.2-0.2,0.1-0.3,0.1c-0.3,0-0.5,0.1-0.8,0.1C2.8,5.2,3,5.1,2.8,4.9
		c0,0.2-0.2,0.4-0.5,0.3C1.9,5,1.9,5,1.8,5.3C1.7,5.2,1.9,5,1.7,5C1.4,5,1.5,5.3,1.3,5.3C1.1,5.3,1.2,5.1,1,5.1
		C0.9,5.1,1,5.3,0.8,5.3C0.7,5.2,0.7,5.1,0.7,4.9c0,0-0.1-0.1-0.2-0.1c-0.1,0-0.1,0-0.1,0C0.6,5.2,0.1,5.1,0,5.2C0,5.8,0,6.4,0,7
		c0.3-0.1,0.5-0.1,0.4,0.2c0.7-0.5,1-0.5,1.3-0.2c0-0.1,0-0.2,0.1-0.4c0,0.2,0.1,0.2,0.1,0.3c0,0,0,0,0,0.1c0,0,0,0,0.1-0.1
		c0.4-0.2,0.7-0.2,0.9,0.1c0-0.3,0.4-0.3,0.5-0.4C3.4,6.9,3.8,6.7,4,6.8C4.2,6.9,4.2,7,4.2,7.2c0.4-0.3,1-0.3,1.5-0.3
		c0.5,0,0.8-0.1,0.9,0.4C6.8,7.1,6.7,7,6.8,6.9c0,0,0,0.1,0,0.1c0,0.1,0.1,0,0.1,0c0.4-0.3,0.7-0.3,1,0c0.1,0,0.1,0,0.1,0
		c0.5-0.1,0.5-0.1,0.5,0.3c0,0.1,0,0.2,0,0.3C8.8,7.3,8.7,7.2,8.8,7c0-0.1,0-0.2,0.1-0.2C9,6.9,9.3,6.8,9.4,7c0,0.1,0,0.2,0.1,0.2
		C9.7,7.2,9.4,7,9.7,7c0.6,0,0.9,0.1,1,0.5c0,0.1,0,0.3,0.1,0.5C11,7.9,11,7.6,11.2,7.5c0,0.2,0,0.3,0,0.5c0.1-0.3,0.2-0.6,0.3-0.9
		c0.2,0.3,0.2,0.6,0.2,0.9c0.3-0.2,0.1-0.4,0.2-0.6c0,0.1,0,0.2,0.1,0.4c0.1-0.1,0.1-0.2,0.2-0.3c0,0.3,0,0.6,0.3,0.8
		c0.2,0.2,0.2,0.5,0.2,0.8c0.1,0.6-0.1,1.1,0.2,1.7c0.2-0.4,0.1-0.8,0.1-1.2c0-0.2-0.1-0.4,0.2-0.6c0,0.4,0,0.7,0,1c0,0,0,0,0,0.1
		c0,0,0.1,0,0.1,0c0-0.1,0-0.3,0-0.4c0.1-0.7,0-1.4,0.3-2.1c0.1-0.2,0.3-0.3,0.3-0.5c0,0,0.1,0.1,0.2,0c0,0,0-0.2,0.1,0
		c0,0.1,0,0.2,0.1,0.2c0.5,0.1,0.4,0.4,0.4,0.6c0,0.1,0,0.2,0,0.3c0,0.1,0.1,0.1,0.2,0.1c0.1,0,0.1-0.1,0.1-0.1c0-0.3,0-0.6,0-0.9
		c0-0.1,0-0.2,0.2-0.2c0.2,0,0.1,0.1,0.1,0.2c0.1,0.5,0.2,0.9,0.4,1.4c0.2-0.2,0.1-0.5,0.3-0.8c0,0.5,0,1,0.1,1.4
		c0.2-0.2,0-0.5,0.1-0.7c0-0.1,0-0.3,0.1-0.4c0-0.1,0-0.1,0-0.2c0.1,1,0.1,2.1,0.2,3.1c0.2,0.2-0.1,0.5,0.2,0.8
		c0.1-0.2,0.1-0.4,0.1-0.5c0-1.2,0.1-2.4,0.7-3.6c0.1,0,0.2,0.2,0.2,0.2C18,7.8,18,7.6,18.4,7.6c-0.1-0.4,0.5-0.4,0.5-0.8
		c0.2,0.1,0.1,0.3,0.2,0.4C19.2,7.2,19,7,19.3,7c0.2,0,0.3,0.1,0.4,0.2c0,0.1,0.1,0.1,0.1,0.2c-0.1,0.7,0.4,1.3,0.3,1.9
		c0,0,0.1,0,0.1,0c0-0.5,0-0.9,0-1.4c0.2,0.1,0.2,0.2,0.2,0.4c0.1,0,0.2,0,0.3,0.1c0.1-0.5-0.2-1,0.3-1.5c0,0.1,0,0.2,0,0.2
		c0.7,0.2,0.7,0.7,0.7,1.1c0,0.4-0.1,0.8,0.3,1.1c0.1-0.6,0.1-1.1,0.1-1.6c0-0.1-0.1-0.2,0.1-0.2c0.2,0,0.2,0.1,0.2,0.2
		c0,0.2,0,0.4,0,0.6c0.3,1,0.4,2.1,0.5,3.1c0,0,0.1,0,0.1,0c0-0.5,0.1-1,0.1-1.5c0-0.2,0.1-0.4,0.1-0.7c0-0.5,0.5-0.9,0.5-1.5
		c0,0,0,0,0,0c0.1,0.1,0,0.2,0.2,0.3c0.3-0.2,0-0.5,0.2-0.7c0.1,0.2-0.1,0.5,0.3,0.8c-0.3-0.4,0.2-0.3,0.3-0.5
		c0-0.3,0.1-0.6,0.6-0.6c0.3,0,0.6,0,0.7-0.2c0,0,0,0,0,0C26.3,7,26.7,7,26.7,7.3c0,0.2,0.1,0.4,0.3,0.6c0.1-0.4,0.1-0.6,0.2-0.9
		c0,0.3,0.3,0.6,0.4,0.9c-0.1-0.4,0.2-0.8,0.5-1.1c-0.1,0.5,0.5,0.2,0.7,0.4c0-0.2,0.2-0.4,0.4-0.5c0.1,0.2,0.1,0.4,0.1,0.6
		c0.2-0.1,0.3-0.2,0.5-0.3C30.1,7.2,30,7.5,30,7.8c0,0,0.1,0,0.1,0c0.2-0.1,0-0.4,0.3-0.4c0.3,0,0.1,0.3,0.1,0.4
		c0.1,0.5,0.1,1.1,0.1,1.6c0,0,0,0,0.1,0c0-0.4,0-0.9,0-1.3c0,0,0.1,0,0.1,0c0,0.6,0,1.1,0,1.7c0,0,0.1,0,0.1,0c0-0.2,0-0.5,0.1-0.7
		c0.1,0,0.1,0,0.2,0c0,0.4,0,0.9,0,1.4c0.3,0,0.2-0.1,0.2-0.2c0.1-0.6,0.1-1.3,0.1-1.9c0-0.2-0.1-0.5,0.4-0.6c0.2,0,0.1-0.5,0.4-0.1
		c0,0,0.2,0,0.2-0.1c0-0.4,0.4-0.5,0.6-0.7c0.3,0.1,0,0.4,0.2,0.6c0.1-0.2,0.1-0.3,0-0.5c0-0.2,0.1-0.2,0.3-0.2c0.1,0,0.2-0.1,0.3,0
		c0.1,0.5,0.4,0,0.5,0.1c0.1,0.2,0.1,0.4,0.2,0.6c0.1,0.2,0,0.4,0.1,0.6c0.3-0.2,0-0.4,0.2-0.6c0.1-0.2,0-0.3,0.2-0.5
		c0,0.1,0,0.2,0.1,0.3c0.2,0,0.2-0.1,0.2-0.2c0.1-0.3,0.1-0.3,0.3-0.3c0.3,0,0.6-0.1,0.8,0c0.4,0.3,0.7,0,1,0c0.3,0,0.5-0.2,0.6,0.2
		c0.2-0.2,0.2-0.4,0.6-0.2c0.1,0.1,0.6,0,1,0c0.2,0,0.5,0.1,0.6,0.1c0.4-0.1,0.8,0,1.1-0.1c0.5-0.1,0.5,0,0.5,0.3
		c0.1-0.3,0.5-0.1,0.7-0.3c0.3-0.3,0.6,0,1-0.1c0,0,0.1,0,0.1,0V5.3z"/>
</g>
</svg>
