<?xml version="1.0" encoding="utf-8"?>
<!-- Generator: Adobe Illustrator 18.0.0, SVG Export Plug-In . SVG Version: 6.00 Build 0)  -->
<!DOCTYPE svg PUBLIC "-//W3C//DTD SVG 1.1//EN" "http://www.w3.org/Graphics/SVG/1.1/DTD/svg11.dtd">
<svg version="1.1" id="Layer_1" xmlns="http://www.w3.org/2000/svg" xmlns:xlink="http://www.w3.org/1999/xlink" x="0px" y="0px"
	 viewBox="0 0 33 33" enable-background="new 0 0 33 33" xml:space="preserve">
<path fill="#3398CB" d="M33,15.8c0-0.2,0-0.4,0-0.6c0,0,0,0,0,0c0,0,0,0,0,0c-0.6-8-7.1-14.5-15.1-15.1c0,0,0,0,0,0
	c-0.2,0-0.4,0-0.6,0c-0.2,0-0.5,0-0.7,0c0,0,0,0,0,0c0,0,0,0,0,0c-0.2,0-0.5,0-0.7,0c-0.2,0-0.4,0-0.6,0h0C6.9,0.7,0.4,7.5,0,15.8
	c0,0.2,0,0.5,0,0.7v0c0,0,0,0,0,0c0,0,0,0,0,0c0,0.2,0,0.5,0,0.7c0.4,8.3,6.9,15.1,15.1,15.7c0,0,0,0,0,0c0.2,0,0.4,0,0.6,0
	c0.2,0,0.5,0,0.7,0c0,0,0,0,0,0c0,0,0,0,0,0c0.2,0,0.5,0,0.7,0c0.2,0,0.4,0,0.6,0c0,0,0,0,0,0c8.2-0.7,14.8-7.4,15.1-15.7
	c0-0.2,0-0.5,0-0.7c0,0,0,0,0,0c0,0,0,0,0,0v0C33,16.3,33,16,33,15.8z M11.7,2.1C10.5,3.3,9.4,5,8.6,7C7.8,7.1,7.2,7.7,7.2,8.6
	c0,0,0,0,0,0c-2.1,0.8-3.9,2-5.1,3.3C3.6,7.3,7.2,3.6,11.7,2.1z M7.7,9.8C7.3,11.4,7,13.2,7,15.1c-0.3,0.2-0.5,0.4-0.6,0.7h-4
	c-0.2-0.3-0.4-0.6-0.8-0.8C2.3,12.9,4.5,11,7.7,9.8z M2.4,17.2h4c0.1,0.3,0.4,0.5,0.6,0.7C7,19.7,7.3,21.4,7.7,23
	c0,0-0.1,0.1-0.1,0.1c-3.1-1.2-5.3-3.1-6-5.2C1.9,17.8,2.2,17.5,2.4,17.2z M2.1,21.3c1.3,1.3,3,2.4,5.1,3.2c0.1,0.6,0.6,1.1,1.3,1.2
	c0.8,2.1,1.9,3.9,3.2,5.2C7.2,29.4,3.6,25.8,2.1,21.3z M15.8,30.6c-0.3,0.2-0.6,0.4-0.8,0.8c-2.2-0.7-4-2.9-5.2-6.1c0,0,0,0,0.1,0
	c1.6,0.4,3.3,0.6,5.1,0.7c0.2,0.4,0.5,0.6,0.8,0.8V30.6z M15.8,23.9c-0.4,0.2-0.7,0.4-0.8,0.8c-1.6-0.1-3.2-0.3-4.6-0.7
	c0-0.8-0.7-1.4-1.4-1.5c-0.3-1.4-0.6-3-0.6-4.6c0.4-0.1,0.7-0.4,0.9-0.8H15c0.2,0.4,0.5,0.6,0.8,0.8V23.9z M15.8,15
	c-0.4,0.2-0.7,0.4-0.8,0.8H9.2C9,15.5,8.7,15.2,8.3,15c0.1-1.7,0.3-3.4,0.7-4.9C9.7,10,10.2,9.6,10.3,9c1.5-0.4,3.2-0.6,4.9-0.7
	c0.1,0.2,0.3,0.4,0.6,0.5L15.8,15z M15.8,6c-0.4,0.2-0.7,0.5-0.8,1c-1.7,0.1-3.4,0.3-4.9,0.7C10.1,7.6,10,7.5,9.9,7.4
	c1.2-3,3.1-5.2,5.2-5.8c0.2,0.3,0.4,0.6,0.8,0.8L15.8,6L15.8,6z M30.9,11.9c-1.3-1.3-3-2.4-5.1-3.3c0,0,0,0,0,0
	c0-0.8-0.7-1.5-1.5-1.6c-0.8-2-1.9-3.7-3.2-4.9C25.8,3.6,29.4,7.2,30.9,11.9z M31.4,15.1c-0.3,0.2-0.6,0.4-0.8,0.8h-3.7
	c-0.2-0.4-0.5-0.7-0.9-0.8c-0.1-1.9-0.4-3.6-0.8-5.2C28.4,11,30.7,12.9,31.4,15.1z M17.2,2.4c0.3-0.2,0.6-0.4,0.8-0.8
	c2.1,0.7,3.9,2.8,5.2,5.8c-0.1,0.1-0.1,0.2-0.2,0.2c-1.5-0.4-3.1-0.6-4.8-0.7c-0.1-0.5-0.5-0.9-0.9-1L17.2,2.4z M17.2,8.9
	c0.3-0.1,0.5-0.3,0.7-0.6c1.7,0.1,3.3,0.3,4.8,0.7c0.2,0.6,0.7,1.1,1.3,1.2c0.4,1.5,0.6,3.2,0.7,5c-0.3,0.2-0.5,0.4-0.7,0.7h-6.2
	c-0.1-0.3-0.4-0.6-0.7-0.7V8.9z M17.2,17.9c0.3-0.2,0.6-0.4,0.7-0.7H24c0.1,0.3,0.4,0.5,0.7,0.7c-0.1,1.7-0.3,3.2-0.6,4.7
	c-0.8,0.1-1.4,0.7-1.4,1.5c-1.5,0.4-3.1,0.6-4.7,0.7c-0.1-0.3-0.4-0.6-0.7-0.7L17.2,17.9L17.2,17.9z M17.9,31.4
	c-0.2-0.3-0.4-0.6-0.8-0.8v-3.9c0.3-0.2,0.6-0.4,0.7-0.7c1.9-0.1,3.6-0.3,5.3-0.7c0,0,0,0,0.1,0C21.9,28.5,20.1,30.7,17.9,31.4z
	 M21.1,30.9c1.3-1.3,2.5-3.1,3.3-5.2c0.6-0.1,1.2-0.6,1.3-1.2c2.1-0.8,3.9-1.9,5.1-3.2C29.4,25.8,25.7,29.4,21.1,30.9z M25.4,23.1
	c0-0.1-0.1-0.1-0.1-0.1c0.4-1.6,0.6-3.2,0.7-5c0.4-0.1,0.7-0.4,0.9-0.8h3.7c0.2,0.3,0.4,0.6,0.8,0.8C30.7,20.1,28.5,21.9,25.4,23.1z
	"/>
</svg>
