<?xml version="1.0" encoding="utf-8"?>
<!-- Generator: Adobe Illustrator 18.0.0, SVG Export Plug-In . SVG Version: 6.00 Build 0)  -->
<!DOCTYPE svg PUBLIC "-//W3C//DTD SVG 1.1//EN" "http://www.w3.org/Graphics/SVG/1.1/DTD/svg11.dtd">
<svg version="1.1" id="Layer_1" xmlns="http://www.w3.org/2000/svg" xmlns:xlink="http://www.w3.org/1999/xlink" x="0px" y="0px"
	 viewBox="0 0 38 29.8" enable-background="new 0 0 38 29.8" xml:space="preserve">
<g>
	<g>
		<path fill="#3398CB" d="M30.1,19.2l-0.3,0.2c-0.3-0.5-0.9-0.6-1.4-0.3l-14,8.3l0,0l-3,1.8c-0.7,0.4-1.5,0.2-1.9-0.5L0,12.8
			l0.3-0.2c0.3,0.5,0.9,0.6,1.4,0.3l12.8-7.6l0,0l4.2-2.5c0.7-0.4,1.5-0.2,1.9,0.5L30.1,19.2z M14.5,26.9l13.6-8.1
			c0.3-0.2,0.7-0.2,1.1-0.2l-9-15.1c-0.3-0.5-0.9-0.6-1.4-0.3l-17,10.1c-0.3,0.2-0.7,0.2-1.1,0.2l9,15.1c0.3,0.5,0.9,0.6,1.4,0.3
			L14.5,26.9z"/>
		<g>
			<path fill="#3398CB" d="M24.9,19.6L23,16.5l-3.8,2.3l1.9,3.2c0.3,0.6,1.1,0.8,1.7,0.4l3.8-2.3C26,20.4,25.3,20.2,24.9,19.6z"/>
			<path fill="#3398CB" d="M21.3,7.2c0.6-0.3,1.3-0.2,1.7,0.4l-2.5-4.2c-0.3-0.6-1.1-0.8-1.7-0.4L15,5.3c0.6-0.3,1.3-0.2,1.7,0.4
				l1.9,3.1l-3.8,2.3l2.2,3.8l3.8-2.3l2.3,3.8l2.8-1.7c0.6-0.3,1.3-0.2,1.7,0.4l-2.3-3.8c-0.3-0.6-1.1-0.8-1.7-0.4l-2.8,1.7
				l-2.2-3.8L21.3,7.2z"/>
			<path fill="#3398CB" d="M9.1,10.3l1.9,3.1l3.8-2.3L12.9,8c-0.3-0.6-1.1-0.8-1.7-0.4L7.4,9.9C8,9.5,8.7,9.7,9.1,10.3z"/>
			
				<rect x="7.9" y="14.3" transform="matrix(-0.8592 0.5117 -0.5117 -0.8592 27.2493 25.3683)" fill="#3398CB" width="4.4" height="4.3"/>
			<path fill="#3398CB" d="M17.3,24.1L15.4,21l0,0l-3.8,2.3l-2.3-3.8l-2.8,1.7c-0.6,0.3-1.3,0.2-1.7-0.4l1.2,2.1l0.5,0.8l0.6,1
				c0.3,0.6,1.1,0.8,1.7,0.4l2.8-1.7l1.9,3.2c0.3,0.6,1.1,0.8,1.7,0.4l3.8-2.3C18.4,24.9,17.6,24.7,17.3,24.1z"/>
			
				<rect x="14" y="15.7" transform="matrix(-0.8592 0.5117 -0.5117 -0.8592 39.2791 25.0543)" fill="#3398CB" width="4.4" height="4.4"/>
			<path fill="#3398CB" d="M3.6,12.1l-1.8,1c-0.6,0.3-1.3,0.2-1.7-0.4l2.5,4.2c0.3,0.6,1.1,0.8,1.7,0.4l2.8-1.7l-1.9-3.3
				C4.8,12,4.1,11.8,3.6,12.1z"/>
		</g>
		<path fill="#3398CB" d="M19.8,0.2C19.2,0.6,19,1.4,19.4,2l16.2,27.2c0.4,0.6,1.2,0.8,1.8,0.5c0.6-0.4,0.8-1.2,0.5-1.8L21.6,0.6
			C21.3,0,20.5-0.2,19.8,0.2z M37.5,28c0.3,0.4,0.1,1-0.3,1.2c-0.4,0.3-1,0.1-1.2-0.3L19.7,1.8c-0.3-0.4-0.1-1,0.3-1.2
			c0.4-0.3,1-0.1,1.2,0.3L37.5,28z"/>
	</g>
</g>
</svg>
