<?xml version="1.0" encoding="utf-8"?>
<!-- Generator: Adobe Illustrator 18.0.0, SVG Export Plug-In . SVG Version: 6.00 Build 0)  -->
<!DOCTYPE svg PUBLIC "-//W3C//DTD SVG 1.1//EN" "http://www.w3.org/Graphics/SVG/1.1/DTD/svg11.dtd">
<svg version="1.1" id="Layer_1" xmlns="http://www.w3.org/2000/svg" xmlns:xlink="http://www.w3.org/1999/xlink" x="0px" y="0px"
	 viewBox="0 0 16.3 36.3" enable-background="new 0 0 16.3 36.3" xml:space="preserve">
<g>
	<g>
		<g>
			<path fill="#FFFFFF" d="M12.2,25.6c-0.4,0.1-0.6,0.1-0.9,0.3c-0.3,0-0.7-0.1-0.7-0.1c-2.4-5.1-3.2-7.6-3.4-8.1
				c-0.2-0.5-1.2-4.5-1.6-6.2S4.5,7.9,4.5,7.9C4.4,7.4,4.2,7,4.1,6.8c-0.4-1.5,0-3.3,0.1-4C4.8,2.1,5.1,2,5.3,1.9
				c0,0,0.4-0.2,1.2-0.4"/>
			<path fill="#333333" d="M11.3,26.1L11.3,26.1c-0.4,0-0.8-0.1-0.8-0.1l-0.1,0l-0.1-0.1c-1.1-2.3-2.5-5.5-3.4-8.1l0-0.1
				c-0.1-0.3-0.5-1.8-0.9-3.5c-0.3-1-0.5-2.1-0.7-2.7C4.9,9.8,4.3,8,4.3,8l0,0C4.2,7.7,4.1,7.4,4,7.2C3.9,7.1,3.9,6.9,3.8,6.8
				c-0.4-1.6,0-3.4,0.1-4.1l0-0.1L4,2.5c0.6-0.7,0.9-0.8,1.1-0.9l0,0c0,0,0.5-0.2,1.3-0.4l0.1,0.6C5.8,1.9,5.4,2.1,5.4,2.1l0,0
				C5.2,2.2,5,2.3,4.5,2.9C4.4,3.6,4.1,5.3,4.4,6.7c0,0.1,0.1,0.2,0.1,0.3c0.1,0.2,0.2,0.5,0.3,0.8C4.9,8,5.5,9.7,5.9,11.3
				c0.2,0.7,0.4,1.7,0.7,2.7c0.4,1.5,0.8,3.1,0.9,3.4l0,0.1c0.8,2.5,2.2,5.6,3.3,7.9c0.1,0,0.3,0.1,0.4,0.1c0.3-0.1,0.5-0.2,0.8-0.2
				l0.1,0l0.1,0.6l-0.1,0C11.9,25.9,11.7,26,11.3,26.1L11.3,26.1z"/>
		</g>
		<g>
			<path fill="#FFFFFF" d="M11.9,25.6c0.4-0.1,0.6-0.2,0.9-0.2c0.3-0.2,0.6-0.4,0.6-0.4c-0.1-5.7-0.5-8.2-0.6-8.8
				c-0.1-0.5-1-4.5-1.3-6.2c-0.4-1.7-0.6-3.6-0.6-3.6c-0.1-0.5-0.1-1-0.1-1.2c-0.4-1.5-1.5-3-1.9-3.6C8,1.3,7.7,1.3,7.5,1.3
				c0,0-0.5,0-1.2,0.2"/>
			<path fill="#333333" d="M11.9,25.9l-0.1-0.6l0.1,0c0.3-0.1,0.5-0.1,0.8-0.2c0.1-0.1,0.3-0.2,0.4-0.3c-0.1-2.5-0.2-5.9-0.6-8.5
				l0-0.1c0-0.3-0.4-1.9-0.7-3.5c-0.2-1-0.5-2.1-0.6-2.8c-0.3-1.6-0.6-3.5-0.6-3.6c-0.1-0.3-0.1-0.6-0.1-0.9c0-0.1,0-0.2,0-0.3
				c-0.3-1.4-1.3-3.2-1.8-3.8C8,1.2,7.7,0.8,7.5,0.8h0c0,0-0.4,0.4-1.2,0.6L6.2,0.9C7,0.8,7.5,0.8,7.5,0.8h0c0.2,0,0.5,0.1,1.4,0.4
				L9,1.3l0.1,0.1C9.5,2,10.6,3.6,11,5.1c0,0.1,0,0.3,0,0.4c0,0.2,0,0.5,0.1,0.8l0,0c0,0,0.2,1.9,0.6,3.6c0.1,0.7,0.4,1.7,0.6,2.8
				c0.4,1.6,0.7,3.2,0.7,3.5l0,0.1c0.4,2.7,0.6,6.2,0.6,8.7l0,0.1l-0.1,0.1c0,0-0.3,0.3-0.6,0.4l-0.1,0l-0.1,0
				c-0.3,0-0.5,0.1-0.8,0.1L11.9,25.9z"/>
		</g>
	</g>
	<g>
		<path fill="#666666" d="M6.7,4.6c-0.7,0-1.4-0.5-1.5-1.1C5,2.7,5.5,1.9,6.4,1.7c0.1,0,0.3,0,0.4,0c0.7,0,1.4,0.5,1.5,1.1
			c0.1,0.4,0,0.8-0.2,1.1c-0.2,0.3-0.6,0.6-1,0.7C7,4.6,6.8,4.6,6.7,4.6z M6.8,2C6.7,2,6.6,2,6.5,2c-0.7,0.2-1.1,0.8-1,1.4
			c0.1,0.5,0.6,0.8,1.2,0.8c0.1,0,0.2,0,0.3,0c0.3-0.1,0.6-0.3,0.8-0.5C8,3.4,8,3.1,8,2.8C7.9,2.3,7.4,2,6.8,2z"/>
	</g>
	<g>
		<path fill="#FFFFFF" d="M0.6,31.6c0,0,1.4-3.2,1.4-8.5c0-4.2-1.9-11.5-1.8-12.1s1-7.4,1.1-7.7s0.2-0.7,0.8-0.9s3.1-1.8,3.4-1.9
			c0.3-0.1,2.8-0.7,3.8-0.1C10,0.8,9.1,1.6,9.1,1.6S8.4,0.8,7,1.1S4.4,2,4.1,2.6C3.9,3.1,4,5.1,4,5.9c0,0.8,0.3,2.7,1.3,4.7
			c0.6,1.1,0.3,0.6,1,1.2c0.7,0.5,1.9,1.7,4.9-1.9c2.7-3.2,3.3-3.6,4.2-2.9s0.3,2.2,0.2,3.3s-0.5,0.8-0.9,1.5s-1.4,2-1.4,5
			c0,4-0.4,4.8-2.6,9.2c-1.2,3.2-2.5,10.3-2.5,10.3L0.6,31.6z"/>
	</g>
	<g>
		<path fill="#3398CB" d="M0.8,31.7l-0.4-0.1c0,0,0.4-0.9,1-4.2c0.5-2.8,0.4-4.1,0.3-5.2c0-0.2,0-0.4,0-0.6c-0.1-1.2-0.9-6.9-1.2-8
			C0.2,12.3,0,11.4,0,11c0-0.1,0-0.3,0.1-0.7c0.1-0.7,0.3-2,0.5-3.5C0.7,6,0.8,5.4,0.8,5C0.9,4.2,1,3.9,1,3.7c0,0,0-0.1,0-0.1
			c0-0.3,0-0.9,0.9-1.3c0.5-0.2,1.5-0.8,2.2-1.2c0.6-0.3,1-0.6,1.2-0.7C5.9,0.1,7,0,7.8,0c0.7,0,1.4,0,1.8,0.4
			C9.7,0.5,9.8,0.7,9.8,1l0,0l0,0C9.6,1.4,9.5,1.5,9.3,1.5c-0.1,0-0.2-0.1-0.1-0.3l0.4,0.1c0,0,0-0.1-0.1-0.2c-0.1,0-0.2,0-0.2,0
			c0,0,0,0,0.1-0.2c0-0.1,0-0.2-0.1-0.3C9,0.4,8.3,0.4,7.8,0.4c-1.1,0-1.9,0.2-2.3,0.3C5.4,0.8,4.9,1.1,4.4,1.4
			c-0.8,0.4-1.7,1-2.3,1.3c-0.6,0.3-0.7,0.7-0.7,1c0,0.1,0,0.1,0,0.2c0,0.1-0.1,0.4-0.2,1.2C1.2,5.5,1.1,6.1,1,6.9
			c-0.2,1.6-0.4,2.8-0.5,3.5c-0.1,0.3-0.1,0.5-0.1,0.6c0,0.3,0.3,1.5,0.5,2.4c0.3,1.1,1.1,6.8,1.2,8c0,0.2,0,0.4,0,0.6
			c0.1,1.1,0.2,2.4-0.3,5.3C1.2,30.7,0.8,31.6,0.8,31.7z"/>
	</g>
	<g>
		<path fill="#3398CB" d="M8.5,36.3l-0.4,0c0.1-0.7,1.8-9.1,3.1-11.6c0.1-0.2,0.2-0.5,0.4-0.7c1-1.9,1.5-2.8,1.6-5.5
			c0-3.8,0.4-4.7,0.7-5.2c0.1-0.1,0.1-0.2,0.1-0.3c0-0.4,0.4-0.8,0.8-1.3c0.3-0.4,0.8-0.9,0.7-1.1c0-0.6,0.2-1.4,0.3-1.7
			c0,0,0-0.1,0-0.1c0,0,0-0.1,0.1-0.2c0.1-0.2,0.2-0.6-0.3-1.1c-0.6-0.6-1-0.6-1.8-0.1c-0.2,0.2-1.6,1.7-2.5,2.8
			c-1.1,1.2-2.4,2.6-4.2,2.5l0-0.4C8.7,12.4,10,11,11,9.9C12,8.7,13.5,7,13.5,7l0,0c0.8-0.5,1.5-0.7,2.3,0.2
			c0.7,0.7,0.4,1.3,0.3,1.5c0,0,0,0.1,0,0.1c0,0,0,0.1,0,0.1c-0.1,0.3-0.3,1.1-0.3,1.6c0,0.4-0.4,0.9-0.8,1.4
			c-0.3,0.4-0.7,0.8-0.7,1c0,0.2-0.1,0.3-0.2,0.5c-0.2,0.5-0.7,1.3-0.6,5c-0.1,2.8-0.6,3.7-1.6,5.7c-0.1,0.2-0.2,0.4-0.4,0.7
			C10.3,27.2,8.6,35.6,8.5,36.3z"/>
	</g>
	<g>
		<path fill="#3398CB" d="M7.3,12.5c-0.4,0-2.9-1.6-3-1.6l0.2-0.3c0.8,0.5,2.6,1.5,2.8,1.5L7.3,12.5z"/>
	</g>
	<g>
		<path fill="#333333" d="M5.6,11.5c-0.2-0.8-1.3-3-1.3-3l0.2-0.1c0,0,1.1,2.2,1.3,3L5.6,11.5z"/>
	</g>
	<g>
		<path fill="#333333" d="M14.3,8.5c-0.5-0.4-1-0.3-1.5-0.2l0-0.2c0.5-0.1,1.1-0.3,1.7,0.3L14.3,8.5z"/>
	</g>
	<g>
		<path fill="#3398CB" d="M15.4,8.8L15.4,8.8c-0.4,0-0.6-0.3-0.6-0.3c0,0-0.4-0.3-0.7-0.8C14,7.5,14,7.3,14,7.2
			c0.1-0.2,0.2-0.3,0.3-0.3c0.2-0.1,0.4-0.1,0.5-0.1c0.4,0,0.6,0.2,0.9,0.4l0.1,0.1c0.5,0.4,0.5,1,0.2,1.4l0,0
			C15.8,8.8,15.6,8.8,15.4,8.8z M14.8,6.9c-0.1,0-0.3,0-0.4,0.1c-0.1,0-0.1,0.1-0.2,0.2c0,0.1,0,0.3,0.1,0.5C14.6,8.1,15,8.4,15,8.4
			c0,0,0.2,0.2,0.5,0.2c0.1,0,0.3-0.1,0.4-0.2c0.1-0.2,0.3-0.7-0.2-1.1l-0.1-0.1C15.3,7.1,15.1,6.9,14.8,6.9z"/>
	</g>
</g>
</svg>
