<?xml version="1.0" encoding="utf-8"?>
<!-- Generator: Adobe Illustrator 18.0.0, SVG Export Plug-In . SVG Version: 6.00 Build 0)  -->
<!DOCTYPE svg PUBLIC "-//W3C//DTD SVG 1.1//EN" "http://www.w3.org/Graphics/SVG/1.1/DTD/svg11.dtd">
<svg version="1.1" id="Layer_1" xmlns="http://www.w3.org/2000/svg" xmlns:xlink="http://www.w3.org/1999/xlink" x="0px" y="0px"
	 viewBox="0 0 21.2 47.1" enable-background="new 0 0 21.2 47.1" xml:space="preserve">
<g>
	<g>
		<g>
			<path fill="#FFFFFF" d="M15.9,33.1c-0.5,0.1-0.8,0.2-1.2,0.3c-0.4,0-0.9-0.2-0.9-0.2c-3.2-6.7-4.2-9.8-4.4-10.5s-1.5-5.8-2.1-8
				s-1.4-4.6-1.4-4.6C5.7,9.5,5.4,9.1,5.3,8.8c-0.5-2,0-4.3,0.1-5.2c0.8-0.9,1.2-1,1.4-1.1c0,0,0.6-0.3,1.5-0.5"/>
			<path fill="#333333" d="M14.7,33.9L14.7,33.9c-0.6,0-1-0.2-1.1-0.2l-0.2,0l-0.1-0.2C12,30.5,10.1,26.3,9.1,23l0-0.1
				c-0.1-0.4-0.6-2.4-1.2-4.5c-0.3-1.3-0.7-2.7-0.9-3.6c-0.6-2.1-1.4-4.5-1.4-4.5l0,0c-0.1-0.4-0.2-0.7-0.3-1C5.1,9.2,5,9,5,8.9
				c-0.5-2-0.1-4.4,0.1-5.3l0-0.1l0.1-0.1C6,2.4,6.4,2.2,6.6,2.1l0,0c0,0,0.6-0.3,1.6-0.5l0.2,0.7C7.5,2.5,7,2.8,7,2.8l0,0
				C6.8,2.9,6.5,3,5.8,3.7c-0.2,0.9-0.5,3.1-0.1,5c0,0.1,0.1,0.2,0.1,0.4C6,9.3,6.1,9.7,6.2,10.1c0.1,0.2,0.9,2.5,1.4,4.6
				c0.2,0.9,0.6,2.2,0.9,3.6c0.5,2,1,4,1.2,4.4l0,0.1c1,3.2,2.9,7.3,4.3,10.2c0.1,0,0.4,0.1,0.6,0.1c0.3-0.1,0.6-0.2,1-0.3l0.2,0
				l0.2,0.7l-0.2,0C15.4,33.6,15.1,33.7,14.7,33.9L14.7,33.9z"/>
		</g>
		<g>
			<path fill="#FFFFFF" d="M15.4,33.3c0.5-0.1,0.8-0.2,1.2-0.2c0.4-0.2,0.7-0.5,0.7-0.5c-0.1-7.4-0.7-10.7-0.8-11.4
				c-0.1-0.7-1.3-5.9-1.7-8.1c-0.5-2.2-0.7-4.7-0.7-4.7C13.9,7.6,14,7,13.9,6.8c-0.5-2-1.9-3.9-2.4-4.6C10.3,1.7,10,1.7,9.7,1.7
				c0,0-0.6,0-1.6,0.3"/>
			<path fill="#333333" d="M15.5,33.6l-0.2-0.7l0.1,0c0.4-0.1,0.7-0.2,1-0.2c0.2-0.1,0.4-0.3,0.5-0.3c-0.1-3.2-0.3-7.7-0.8-11.1
				l0-0.1c-0.1-0.4-0.5-2.5-0.9-4.5c-0.3-1.3-0.6-2.7-0.8-3.6C14,11,13.8,8.6,13.7,8.4c-0.1-0.4-0.1-0.8-0.1-1.1c0-0.2,0-0.3,0-0.4
				c-0.4-1.8-1.7-4.2-2.3-4.9C10.3,1.6,10,1,9.8,1H9.7c0,0-0.6,0.6-1.5,0.8L8.1,1.2C9.1,0.9,9.7,1,9.7,1h0.1c0.3,0,0.7,0.2,1.8,0.6
				l0.1,0.1l0.1,0.2c0.5,0.7,2,2.7,2.5,4.8c0,0.1,0,0.3,0.1,0.5c0,0.3,0,0.6,0.1,1l0,0c0,0,0.3,2.5,0.7,4.7c0.2,0.9,0.5,2.3,0.8,3.6
				c0.5,2.1,0.9,4.1,1,4.5l0,0.1c0.5,3.5,0.7,8.1,0.8,11.3l0,0.2l-0.1,0.1c0,0-0.4,0.3-0.8,0.6l-0.1,0l-0.1,0c-0.3,0-0.6,0.1-1,0.2
				L15.5,33.6z"/>
		</g>
	</g>
	<g>
		<path fill="#666666" d="M8.7,6c-1,0-1.8-0.6-2-1.5c-0.2-1,0.5-2.1,1.6-2.4c0.2,0,0.4-0.1,0.5-0.1c1,0,1.8,0.6,2,1.5
			c0.1,0.5,0,1-0.3,1.5c-0.3,0.4-0.8,0.8-1.3,0.9C9,6,8.8,6,8.7,6z M8.8,2.6c-0.1,0-0.3,0-0.4,0C7.5,2.9,7,3.7,7.2,4.4
			c0.1,0.6,0.8,1.1,1.5,1.1c0.1,0,0.3,0,0.4,0c0.4-0.1,0.8-0.3,1-0.7c0.2-0.3,0.3-0.7,0.2-1.1C10.2,3,9.6,2.6,8.8,2.6z"/>
	</g>
	<g>
		<path fill="#FFFFFF" d="M0.8,41c0,0,1.8-4.2,1.8-11c0-5.5-2.5-15-2.4-15.6s1.3-9.6,1.4-10s0.3-0.9,1-1.2s4-2.4,4.4-2.5
			c0.4-0.1,3.6-0.8,4.9-0.1c0.9,0.5-0.2,1.5-0.2,1.5S11,1,9.1,1.4S5.7,2.6,5.4,3.3S5.2,6.6,5.2,7.7c0,1,0.4,3.6,1.7,6.1
			c0.7,1.5,0.3,0.8,1.3,1.5c0.9,0.7,2.5,2.2,6.4-2.4c3.5-4.1,4.3-4.7,5.5-3.8s0.4,2.9,0.2,4.3s-0.7,1.1-1.2,2
			c-0.6,0.9-1.8,2.6-1.8,6.4c0.1,5.2-0.5,6.3-3.3,11.9c-1.5,4.1-3.2,13.3-3.2,13.3L0.8,41z"/>
	</g>
	<g>
		<path fill="#3398CB" d="M1,41.1l-0.5-0.2c0,0,0.5-1.2,1.3-5.5c0.7-3.6,0.5-5.3,0.4-6.7c0-0.3,0-0.5-0.1-0.8
			C2.1,26.5,1,19,0.6,17.7C0.2,15.9,0,14.7,0,14.3c0-0.1,0.1-0.4,0.1-0.9c0.2-1,0.4-2.5,0.7-4.6C0.9,7.8,1,7.1,1.1,6.5
			C1.2,5.4,1.3,5,1.3,4.8c0,0,0-0.1,0-0.1c0-0.4,0.1-1.2,1.2-1.7c0.7-0.3,1.9-1,2.9-1.6C6.1,0.9,6.7,0.6,7,0.5C7.7,0.2,9.1,0,10.1,0
			C11,0,12,0,12.4,0.5c0.2,0.2,0.3,0.5,0.3,0.8l0,0.1l0,0.1c-0.2,0.3-0.4,0.6-0.6,0.5c-0.1,0-0.2-0.2-0.2-0.3l0.5,0.1
			c0,0,0-0.2-0.1-0.2c-0.1-0.1-0.2,0-0.3,0c0,0,0.1-0.1,0.2-0.3c0-0.2,0-0.3-0.1-0.4c-0.3-0.3-1.3-0.4-1.9-0.3
			c-1.4,0-2.4,0.2-2.9,0.4C7,1,6.4,1.4,5.7,1.8c-1,0.6-2.3,1.3-3,1.6C1.9,3.8,1.8,4.4,1.8,4.7c0,0.1,0,0.2,0,0.2
			c0,0.2-0.1,0.6-0.2,1.6C1.5,7.1,1.4,7.9,1.3,9c-0.2,2-0.5,3.6-0.7,4.6c-0.1,0.4-0.1,0.7-0.1,0.8c0,0.4,0.3,1.9,0.6,3.2
			c0.3,1.4,1.4,8.9,1.5,10.4c0,0.2,0,0.5,0.1,0.7c0.1,1.4,0.3,3.1-0.4,6.8C1.6,39.9,1,41,1,41.1z"/>
	</g>
	<g>
		<path fill="#3398CB" d="M11,47.1l-0.5,0c0.1-0.9,2.3-11.8,4-15.1c0.2-0.3,0.3-0.6,0.5-0.9c1.3-2.5,1.9-3.7,2-7.2
			c-0.1-4.9,0.6-6.1,0.9-6.7c0.1-0.2,0.2-0.3,0.2-0.4c0-0.5,0.5-1,1.1-1.6c0.4-0.5,1-1.1,1-1.4c0-0.7,0.2-1.8,0.3-2.2
			c0-0.1,0-0.1,0-0.1c0-0.1,0-0.1,0.1-0.2c0.1-0.3,0.3-0.8-0.3-1.5c-0.8-0.8-1.4-0.7-2.3-0.1c-0.2,0.2-2,2.2-3.3,3.6
			c-1.4,1.5-3.1,3.4-5.5,3.3l0-0.5c2.1,0.1,3.8-1.7,5.1-3.1c1.3-1.5,3.3-3.7,3.3-3.7l0.1,0c1.1-0.7,2-0.9,3,0.2
			c0.8,0.9,0.6,1.6,0.4,2c0,0,0,0.1,0,0.1c0,0,0,0.1,0,0.2c-0.1,0.4-0.4,1.4-0.3,2.1c0,0.5-0.5,1.1-1.1,1.8c-0.4,0.5-0.9,1-0.9,1.4
			c0,0.2-0.1,0.4-0.2,0.6c-0.3,0.6-0.9,1.7-0.8,6.5c-0.1,3.6-0.7,4.8-2.1,7.4c-0.1,0.3-0.3,0.6-0.5,0.9C13.4,35.3,11.1,46.2,11,47.1
			z"/>
	</g>
	<g>
		<path fill="#3398CB" d="M9.5,16.2c-0.6-0.1-3.8-2-3.8-2l0.3-0.4c1,0.6,3.3,1.9,3.6,2L9.5,16.2z"/>
	</g>
	<g>
		<path fill="#333333" d="M7.3,14.9c-0.3-1.1-1.7-3.9-1.7-3.9l0.2-0.1c0,0,1.5,2.8,1.7,3.9L7.3,14.9z"/>
	</g>
	<g>
		<path fill="#333333" d="M18.6,11c-0.6-0.6-1.3-0.4-1.9-0.3l-0.1-0.2c0.6-0.1,1.4-0.3,2.1,0.3L18.6,11z"/>
	</g>
	<g>
		<path fill="#3398CB" d="M20,11.5L20,11.5c-0.5,0-0.8-0.3-0.8-0.4c0,0-0.5-0.4-0.9-1c-0.3-0.4-0.2-0.6-0.2-0.8
			c0.1-0.2,0.2-0.4,0.4-0.4c0.2-0.1,0.5-0.1,0.7-0.1c0.5,0,0.8,0.2,1.2,0.6l0.1,0.1c0.7,0.5,0.6,1.3,0.3,1.8l0,0
			C20.5,11.4,20.3,11.5,20,11.5z M19.2,9c-0.2,0-0.3,0-0.6,0.1c-0.1,0-0.2,0.1-0.2,0.3c0,0.1,0,0.3,0.1,0.6c0.4,0.5,0.9,0.9,0.9,0.9
			c0,0,0.3,0.3,0.6,0.3c0.2,0,0.4-0.1,0.5-0.2c0.1-0.2,0.5-0.9-0.2-1.5l-0.1-0.1C19.8,9.2,19.6,9,19.2,9z"/>
	</g>
</g>
</svg>
