<?xml version="1.0" encoding="utf-8"?>
<!-- Generator: Adobe Illustrator 18.0.0, SVG Export Plug-In . SVG Version: 6.00 Build 0)  -->
<!DOCTYPE svg PUBLIC "-//W3C//DTD SVG 1.1//EN" "http://www.w3.org/Graphics/SVG/1.1/DTD/svg11.dtd">
<svg version="1.1" id="Layer_1" xmlns="http://www.w3.org/2000/svg" xmlns:xlink="http://www.w3.org/1999/xlink" x="0px" y="0px"
	 viewBox="0 0 39.9 28.5" enable-background="new 0 0 39.9 28.5" xml:space="preserve">
<g>
	<g>
		<path fill="#3398CB" d="M39.7,25.5c0,1.7-1.4,3-3,3H3.2c-1.7,0-3-1.4-3-3V3c0-1.7,1.4-3,3-3h33.5c1.7,0,3,1.4,3,3V25.5z"/>
	</g>
	<g opacity="0.3">
		<g>
			<path fill="#FFFFFF" d="M18.6,22.1L18.6,22.1C18.6,22.1,18.6,22.1,18.6,22.1C18.6,22.1,18.6,22.1,18.6,22.1
				C18.6,22.1,18.6,22.1,18.6,22.1L18.6,22.1c0-0.1,0-0.1-0.1-0.2c-0.2-0.3-0.5-0.5-0.8-0.8c-0.6-0.5-1.4-0.9-2.2-1.1
				c-0.5-0.1-0.9-0.1-1.4,0c-0.4,0.1-0.8,0.2-1.2,0.4c-0.6,0.3-1.1,0.7-1.6,1.2c-0.1,0.1-0.2,0.2-0.3,0.3c-0.1,0.1-0.1,0.3,0,0.4
				c0.2,0.3,0.5,0.5,0.8,0.8c0.6,0.5,1.4,0.9,2.2,1.1c0.5,0.1,0.9,0.1,1.4,0c0.4-0.1,0.8-0.2,1.2-0.4c0.6-0.3,1.1-0.7,1.6-1.2
				c0.1-0.1,0.2-0.2,0.3-0.3C18.5,22.3,18.6,22.2,18.6,22.1L18.6,22.1C18.6,22.2,18.6,22.2,18.6,22.1C18.6,22.2,18.6,22.1,18.6,22.1
				C18.6,22.1,18.6,22.1,18.6,22.1C18.6,22.1,18.6,22.1,18.6,22.1C18.6,22.1,18.6,22.1,18.6,22.1C18.6,22.1,18.6,22.1,18.6,22.1z
				 M14.7,23.6c-0.8,0-1.5-0.7-1.5-1.5c0-0.8,0.7-1.5,1.5-1.5c0.8,0,1.5,0.7,1.5,1.5C16.2,22.9,15.5,23.6,14.7,23.6z"/>
		</g>
		<g>
			<circle fill="#FFFFFF" cx="14.7" cy="22.1" r="0.5"/>
		</g>
	</g>
	<g opacity="0.3">
		<path fill="#FFFFFF" d="M28.5,7.1L28.8,7c7.6-2.7,10.8-4.7,10.8-4.8l0.2,0.4c0,0-3.2,2-10.6,4.7c5.8,6.9,9.5,14.2,10.7,18.6
			L39.5,26c-1.1-4.3-4.9-11.7-10.8-18.6L28.5,7.1z"/>
	</g>
	<g opacity="0.3">
		<path fill="#FFFFFF" d="M0,25.9c1.1-4.3,4.9-11.7,10.7-18.6C3.3,4.6,0.1,2.7,0.1,2.6l0.2-0.4c0,0,3.2,2,10.8,4.8l0.3,0.1l-0.2,0.2
			C5.4,14.3,1.6,21.7,0.4,26L0,25.9z"/>
	</g>
</g>
</svg>
