<?xml version="1.0" encoding="utf-8"?>
<!-- Generator: Adobe Illustrator 18.0.0, SVG Export Plug-In . SVG Version: 6.00 Build 0)  -->
<!DOCTYPE svg PUBLIC "-//W3C//DTD SVG 1.1//EN" "http://www.w3.org/Graphics/SVG/1.1/DTD/svg11.dtd">
<svg version="1.1" id="Layer_1" xmlns="http://www.w3.org/2000/svg" xmlns:xlink="http://www.w3.org/1999/xlink" x="0px" y="0px"
	 viewBox="0 0 30.8 21.9" enable-background="new 0 0 30.8 21.9" xml:space="preserve">
<g>
	<g>
		<path fill="#3398CB" d="M30.6,19.6c0,1.3-1,2.3-2.3,2.3H2.5c-1.3,0-2.3-1-2.3-2.3V2.3C0.2,1,1.2,0,2.5,0h25.8c1.3,0,2.3,1,2.3,2.3
			V19.6z"/>
	</g>
	<g opacity="0.3">
		<g>
			<path fill="#FFFFFF" d="M14.3,17L14.3,17C14.3,17,14.3,17,14.3,17C14.3,17,14.3,17,14.3,17C14.3,17,14.3,17,14.3,17L14.3,17
				c0-0.1,0-0.1-0.1-0.1c-0.2-0.2-0.4-0.4-0.6-0.6c-0.5-0.4-1.1-0.7-1.7-0.9c-0.4-0.1-0.7-0.1-1.1,0c-0.3,0.1-0.6,0.2-0.9,0.3
				C9.5,16,9,16.3,8.7,16.7c-0.1,0.1-0.1,0.1-0.2,0.2c-0.1,0.1-0.1,0.2,0,0.3c0.2,0.2,0.4,0.4,0.6,0.6c0.5,0.4,1.1,0.7,1.7,0.9
				c0.4,0.1,0.7,0.1,1.1,0c0.3-0.1,0.6-0.2,0.9-0.3c0.5-0.2,0.9-0.6,1.3-0.9c0.1-0.1,0.1-0.1,0.2-0.2C14.3,17.2,14.3,17.1,14.3,17
				L14.3,17C14.3,17.1,14.3,17.1,14.3,17C14.3,17.1,14.3,17.1,14.3,17C14.3,17.1,14.3,17.1,14.3,17C14.3,17.1,14.3,17.1,14.3,17
				C14.3,17.1,14.3,17.1,14.3,17C14.3,17.1,14.3,17,14.3,17z M11.4,18.2c-0.6,0-1.1-0.5-1.1-1.1c0-0.6,0.5-1.1,1.1-1.1
				c0.6,0,1.1,0.5,1.1,1.1C12.5,17.7,12,18.2,11.4,18.2z"/>
		</g>
		<g>
			<circle fill="#FFFFFF" cx="11.4" cy="17.1" r="0.4"/>
		</g>
	</g>
	<g opacity="0.3">
		<path fill="#FFFFFF" d="M22,5.5l0.2-0.1c5.8-2.1,8.3-3.7,8.3-3.7L30.7,2c0,0-2.4,1.5-8.2,3.6c4.5,5.3,7.3,11,8.2,14.3L30.4,20
			c-0.9-3.3-3.8-9-8.3-14.4L22,5.5z"/>
	</g>
	<g opacity="0.3">
		<path fill="#FFFFFF" d="M0,20c0.9-3.3,3.8-9,8.2-14.3C2.5,3.6,0.1,2.1,0.1,2l0.2-0.3c0,0,2.5,1.6,8.3,3.7l0.2,0.1L8.7,5.7
			C4.1,11,1.2,16.7,0.3,20L0,20z"/>
	</g>
</g>
</svg>
