<?xml version="1.0" encoding="utf-8"?>
<!-- Generator: Adobe Illustrator 18.0.0, SVG Export Plug-In . SVG Version: 6.00 Build 0)  -->
<!DOCTYPE svg PUBLIC "-//W3C//DTD SVG 1.1//EN" "http://www.w3.org/Graphics/SVG/1.1/DTD/svg11.dtd">
<svg version="1.1" id="Layer_1" xmlns="http://www.w3.org/2000/svg" xmlns:xlink="http://www.w3.org/1999/xlink" x="0px" y="0px"
	 viewBox="0 0 22.1 26" enable-background="new 0 0 22.1 26" xml:space="preserve">
<g>
	<path fill="#3398CB" d="M19.7,24c-0.8,0.4-1.9,1.3-2.3,1.7c-0.3,0.3-1.6,0.4-2.3,0.1c-0.8-0.4-0.4-1.1-1.7-1.1c-0.6,0-1.3,0-1.9,0
		c-0.6,0-1.1,0-1.7,0.1c-1.9,0-2.1,1.3-3.3,1.2c-0.8,0-1.9-0.7-3.7-1.1c-1.3-0.3-2.5-0.3-2.8-0.9c-0.3-0.6,0.3-1.2,0.4-1.8
		c0-0.7-0.6-1.7-0.1-2.1C0.7,19.7,1.5,20,2,19.7c0.6-0.3,0.8-0.6,0.8-1.2c0.2,0.7,0,1.3-0.5,1.5c-0.3,0.2-0.8,0.3-1.2,0.2
		c-0.3,0-0.5,0-0.6,0.1c-0.1,0.2-0.1,0.5,0.1,0.8c0.2,0.4,0.3,0.6,0.3,1.1c0,0.5-0.5,1-0.5,1.4c0,0.1,0.2,0.3,0.5,0.4
		c0.6,0.2,1.6,0.3,2.7,0.6c1.1,0.3,2.3,0.8,3.1,0.7c2.2-0.3,0.9-2.7,0.6-3.2c-1.9-2.9-3.1-4.8-4.1-4.1C3,18.2,3,17.5,3,17.2
		c0-1,0.5-1.3,0.8-2c0.6-1.4,1-3,1.8-3.8c0.6-0.8,1.6-2.1,1.8-2.8C7.3,7,7.2,5.4,7.2,4c0-1.5,0.2-2.8,1.9-3.7C9.5,0.1,10,0,10.6,0
		c1,0,2.1,0.3,2.8,0.8c1.1,0.8,1.8,2.6,1.8,3.9c-0.1,1,0.1,2,0.4,3.1c0.4,1.3,1,2.1,1.9,3.2c1.1,1.2,2,3.6,2.3,5.1
		c0.2,1.4-0.1,2.3-0.4,2.4c-0.5,0.1-0.8,1.5-2.2,1.5c-0.9,0-1-0.6-1.3-1.1c-0.4-0.7-0.8-0.5-1,0.3c-0.1,0.4,0,1,0.1,1.4
		c0.3,0.9,0.2,1.8,0,2.8c-0.3,2,1.4,2.4,2.6,1.4c1.1-0.9,1.4-1.1,2.8-1.6c2.2-0.7,1.4-1.4,0.3-1.8c-1-0.3-1.1-2.1-0.7-2.4
		c0.1,1.9,1.1,2.2,1.5,2.4C23.3,22.5,20.8,23.4,19.7,24z M17.3,17c0.4-1.3,0.2-1.8,0-3.1c-0.2-0.9-1.1-2.2-1.7-2.6
		c0.2,0.1,0.5,0.6,0.8,1.2c0.6,1.1,1.2,2.7,0.8,4c-0.1,0.5-0.5,0.6-0.7,0.6c-1,0.1-0.4-1.2-0.8-3c-0.5-2-1-2.2-1.1-2.3
		c-0.6-2.6-1.2-2.4-1.4-3.4c-0.2-0.9,0.8-1.6-0.5-1.9c-0.4-0.1-0.9-0.5-1.2-0.5c-0.2,0-0.3-1.5,0.5-1.5c0.8-0.1,0.9,0.9,0.8,1.3
		c-0.2,0.4,0,0.5,0.4,0.4c0.3-0.1,0.1-0.9,0.2-1.1C13.1,4,12.6,3.8,12,3.7c-2,0.2-1.1,2.4-1.3,2.2c-0.3-0.3-1.1,0-1.1-0.2
		c0-1.1-0.4-1.8-0.9-1.8c-0.6,0-0.8,0.8-0.8,1.3c0,0.4,0.2,1.3,0.5,1.3c0.1,0,0.4-0.3,0.1-0.3c-0.1,0-0.3-0.3-0.4-0.7
		c0-0.4,0.1-0.8,0.6-0.7c0.6,0,0.6,1.1,0.5,1.2C9,5.9,8.8,6.2,8.8,6.2C8.6,6.5,8.2,6.6,8.1,6.7C7.8,7,7.8,7.3,8,7.4
		c0.7,0.4,0.5,0.8,1.4,0.8c0.6,0,1.1-0.1,1.5-0.2c0.3-0.1,1.3-0.3,1.6-0.7c0.1-0.2,0.2-0.2,0.3-0.1c0.1,0.1,0.2,0.3-0.2,0.4
		c-0.5,0.1-1,0.4-1.5,0.6c-0.5,0.2-0.6,0.3-1,0.3C9,8.8,8.3,8.2,9,8.9c0.2,0.2,0.4,0.3,1,0.3c1.2,0,2.6-1.5,2.7-0.9
		c0,0.1-0.4,0.3-0.7,0.5c-1.1,0.6-1.9,1.7-2.7,1.3C8.6,9.7,8,8.1,8,8.8c0,1.1-1.5,2.1-0.8,3.4c-0.4,0.1-1.5,2.2-1.6,3.4
		c-0.1,0.6,0.1,1.4-0.1,1.9c-0.2,0.6-1.2-0.6-0.9-2.1c0.1-0.3,0-0.3-0.1-0.2c-0.4,0.7-0.2,1.7,0.1,2.4c0.1,0.3,0.5,0.4,0.7,0.7
		c0.5,0.6,2.5,2.1,2.9,2.4c0.5,0.4,0.3,1.4-0.6,1.5c0.5,0.9,0.9,1,0.9,2.5c0.6-0.3,0.3-0.9,0.1-1.3c-0.2-0.3-0.4-0.4-0.3-0.5
		c0,0,0.3-0.3,0.5-0.1c0.5,0.6,1.4,0.7,2.4,0.5c1-0.1,2.1-0.5,2.6-1.3c0.2-0.4,0.4-0.5,0.5-0.4c0.1,0.1,0.2,0.3,0.1,0.8
		c0,0.5-0.2,0.9-0.3,1.3C14,24,14,24.3,14.4,24.4c0.1-0.8,0.3-1.6,0.4-2.4c0.1-0.9-0.6-2.6,0.1-3.5c0.2-0.2,0.4-0.3,0.7-0.3
		c0-1.2,1.8-1.1,2.4-0.6C18.1,17.3,17.5,17.1,17.3,17z M5.5,12.8c-0.1,0.2-0.4,0.3-0.2,0.4c0.1,0,0.3-0.2,0.4-0.4
		c0.1-0.2,0.1-0.4,0-0.4C5.6,12.3,5.6,12.6,5.5,12.8z M8.8,4.9c-0.2,0-0.1,0.2-0.1,0.2c0.1,0,0.1,0.1,0.1,0.2c0,0.2,0,0.3,0.1,0.3
		c0,0,0,0,0,0C9,5.2,8.9,4.9,8.8,4.9z M9.2,6.3C9,6.3,9.1,5.9,9.5,6C9.2,6,9.3,6.3,9.2,6.3z M10.4,6c0.4-0.2,0.6,0.1,0.4,0.2
		C10.6,6.2,10.6,5.9,10.4,6z M12.1,4.8c-0.2,0-0.1,0.1,0,0.1c0.1,0,0.2,0.2,0.3,0.5c0,0,0.1,0,0.1-0.1C12.5,5,12.2,4.8,12.1,4.8z
		 M13,1.7c-0.1-0.1-0.2-0.2-0.3-0.2c-0.3,0-0.1,0.3-0.2,0.5c-0.1,0.2-0.3,0.3-0.1,0.4c0.1,0.1,0.2-0.2,0.5-0.3c0.1,0,0.4,0,0.5-0.1
		C13.3,1.9,13.1,1.8,13,1.7z M14.6,8.1c-0.3-0.2-0.3-0.5-0.4-0.4c-0.3,0.3,0.4,1,0.7,1.1c0.2,0,0.3-0.2,0.3-0.4
		C15,8.2,14.8,8.3,14.6,8.1z"/>
</g>
</svg>
