<?xml version="1.0" encoding="utf-8"?>
<!-- Generator: Adobe Illustrator 18.0.0, SVG Export Plug-In . SVG Version: 6.00 Build 0)  -->
<!DOCTYPE svg PUBLIC "-//W3C//DTD SVG 1.1//EN" "http://www.w3.org/Graphics/SVG/1.1/DTD/svg11.dtd">
<svg version="1.1" id="Layer_1" xmlns="http://www.w3.org/2000/svg" xmlns:xlink="http://www.w3.org/1999/xlink" x="0px" y="0px"
	 viewBox="0 0 24.5 27.1" enable-background="new 0 0 24.5 27.1" xml:space="preserve">
<g>
	<path fill-rule="evenodd" clip-rule="evenodd" fill="#3398CB" d="M0,3.6h13.9c-4.2,7.7-3.7,11.3-3.7,11.3h4.5
		c-0.1,0.4-1.3,5.1-0.2,8.7H0L0,3.6L0,3.6z"/>
	<path fill-rule="evenodd" clip-rule="evenodd" fill="#D8D8D8" d="M24.5,23.5H14.3c-1.2-3.2,0.1-8.3,0.1-8.7H9.9
		c0,0-0.1-4.3,3.7-11.3h10.9V23.5L24.5,23.5z"/>
	
		<polygon fill-rule="evenodd" clip-rule="evenodd" fill="#333333" stroke="#333333" stroke-width="0.25" stroke-miterlimit="2.6131" points="
		16.4,6.6 17.7,6.6 17.7,9.5 16.4,9.5 16.4,6.6 	"/>
	<polygon fill-rule="evenodd" clip-rule="evenodd" fill="#FFFFFF" points="6,6.6 7.2,6.6 7.2,9.5 6,9.5 6,6.6 	"/>
	
		<path fill-rule="evenodd" clip-rule="evenodd" fill="#FFFFFF" stroke="#00539F" stroke-width="0.25" stroke-miterlimit="2.6131" d="
		M13.4,18.7c-4,0.2-6.8-0.5-9.1-1.7l-0.6,0.9c2.4,1.4,6.1,2.1,9.8,1.9L13.4,18.7L13.4,18.7z"/>
	
		<path fill-rule="evenodd" clip-rule="evenodd" fill="#333333" stroke="#333333" stroke-width="0.25" stroke-miterlimit="2.6131" d="
		M15.1,26.9c-1.9-3.8-2.2-8.2-1.4-11.4H9.3c0.1-6.6,3.6-12.2,6.2-15.3l0.9,0.7c-2.2,2.7-5.3,7.4-5.9,13.5H15
		c-0.4,1.4-0.7,2.8-0.7,4.3c2.6-0.3,3.9-0.6,5.8-1.6l0.6,0.9c-1.7,1-4,1.6-6.5,1.8c0.1,2.2,0.6,4.4,1.7,6.7L15.1,26.9L15.1,26.9z"/>
</g>
</svg>
