<?xml version="1.0" encoding="utf-8"?>
<!-- Generator: Adobe Illustrator 18.0.0, SVG Export Plug-In . SVG Version: 6.00 Build 0)  -->
<!DOCTYPE svg PUBLIC "-//W3C//DTD SVG 1.1//EN" "http://www.w3.org/Graphics/SVG/1.1/DTD/svg11.dtd">
<svg version="1.1" id="Layer_1" xmlns="http://www.w3.org/2000/svg" xmlns:xlink="http://www.w3.org/1999/xlink" x="0px" y="0px"
	 viewBox="0 0 14.4 32" enable-background="new 0 0 14.4 32" xml:space="preserve">
<g id="Your_Icon_3_">
	<path fill="#3398CB" d="M7.2,0c2.1,0,3,2.6,1.7,3.9C8.7,4.1,8.6,4.3,8.6,4.5c0,0.4,0.2,0.7,0.6,0.8l2,0.8C11.7,6.3,12,6.6,12.2,7
		l2.1,5c0.2,0.5,0.2,1.1,0,1.6l-1.8,4.1c-0.1,0.1-0.1,0.2,0,0.4l0.4,1.1c0.2,0.4-0.3,0.8-0.6,0.6c-0.2-0.1-0.3-0.2-0.4-0.3l-0.6-1.1
		c-0.1-0.2-0.1-0.4-0.1-0.6l1.5-4.4c0.1-0.2,0-0.4-0.1-0.6l-1.3-2.6c-0.2-0.4-0.9-0.3-0.9,0.2L10,15.6l1.2,14.6
		c0,0.2,0.1,0.3,0.3,0.4l1.2,0.6c0.2,0.1,0.3,0.2,0.3,0.4c0,0.3-0.2,0.5-0.5,0.5h-0.1h0l-3.2-0.4c-0.2,0-0.4-0.2-0.4-0.4l-1.6-12
		l-1.6,12c0,0.2-0.2,0.4-0.4,0.4C2,32,2,32,2,32c-0.3,0-0.5-0.2-0.5-0.5c0-0.2,0.1-0.3,0.3-0.4l1.2-0.6c0.2-0.1,0.2-0.2,0.3-0.4
		l1.2-14.6L4,10.1c0-0.5-0.7-0.6-0.9-0.2l-1.3,2.6c-0.1,0.2-0.1,0.4-0.1,0.6l1.5,4.4c0.1,0.2,0.1,0.4-0.1,0.6l-0.6,1.1
		c-0.1,0.2-0.2,0.3-0.4,0.3c-0.4,0.2-0.8-0.2-0.6-0.6L2,18C2,17.9,2,17.7,2,17.6l-1.8-4.1c-0.2-0.5-0.2-1.1,0-1.6l2.1-5
		c0.2-0.4,0.5-0.7,0.9-0.9l2-0.8c0.4-0.1,0.6-0.4,0.6-0.8c0-0.2-0.1-0.4-0.2-0.6C4.2,2.6,5.1,0,7.2,0"/>
</g>
</svg>
