<?xml version="1.0" encoding="utf-8"?>
<!-- Generator: Adobe Illustrator 18.0.0, SVG Export Plug-In . SVG Version: 6.00 Build 0)  -->
<!DOCTYPE svg PUBLIC "-//W3C//DTD SVG 1.1//EN" "http://www.w3.org/Graphics/SVG/1.1/DTD/svg11.dtd">
<svg version="1.1" id="Layer_1" xmlns="http://www.w3.org/2000/svg" xmlns:xlink="http://www.w3.org/1999/xlink" x="0px" y="0px"
	 viewBox="0 0 29.2 38.2" enable-background="new 0 0 29.2 38.2" xml:space="preserve">
<g>
	<rect x="7" y="34.3" fill="#3398CB" width="15.4" height="3.9"/>
	<path fill="#FFFFFF" d="M10.1,36.3c0,0.2-0.1,0.3-0.3,0.3h-2c-0.2,0-0.3-0.1-0.3-0.3v-0.2c0-0.2,0.1-0.3,0.3-0.3h2
		c0.2,0,0.3,0.1,0.3,0.3V36.3z"/>
	<g>
		<g>
			<g>
				<path fill="none" stroke="#3398CB" stroke-miterlimit="10" d="M15.5,3.9c-0.8-2-2.2-3.5-3-3.4c-0.8,0.2-0.9,2.1-0.2,4.2l0.8,2.6
					c0.7,2.1,0.1,2.4-1.2,0.6l-3-4C7.6,2.1,5.9,1,5.1,1.3S4.7,3.5,5.9,5.4l2.3,3.9c1.1,1.9,0.7,2.3-1.1,0.9L5,8.5
					C3.3,7.1,1.4,6.4,0.8,6.9s0,2.3,1.3,4l4,5c1.4,1.7,2.7,3.9,2.9,5c0.2,1-1.2,1.3-3.2,0.5c-2-0.7-4.1-1.1-4.6-0.8
					c-0.5,0.3-0.8,1.1-0.6,1.8c0.2,0.7,1.9,2.1,3.9,3.1l1,0.5c2,1,5.3,2,7.5,2.1l1.4,0.1c2.2,0.2,4.8,0.7,5.9,1.3
					c1,0.5,3.2-0.3,4.9-1.7l1.6-1.4c1.6-1.5,2.3-3.4,1.5-4.4c-0.8-0.9-2.4-3.2-3.5-5.1l-0.1-0.2c-1.1-1.9-2.2-5.2-2.5-7.4L21.9,7
					c-0.3-2.2-1.1-4-1.8-4c-0.7,0-1.4,1.8-1.4,4l0,0.4c0,2.2-0.7,2.3-1.6,0.3L15.5,3.9z"/>
			</g>
		</g>
	</g>
</g>
</svg>
