<?xml version="1.0" encoding="utf-8"?>
<!-- Generator: Adobe Illustrator 18.0.0, SVG Export Plug-In . SVG Version: 6.00 Build 0)  -->
<!DOCTYPE svg PUBLIC "-//W3C//DTD SVG 1.1//EN" "http://www.w3.org/Graphics/SVG/1.1/DTD/svg11.dtd">
<svg version="1.1" id="Layer_1" xmlns="http://www.w3.org/2000/svg" xmlns:xlink="http://www.w3.org/1999/xlink" x="0px" y="0px"
	 viewBox="0 0 40 26.4" enable-background="new 0 0 40 26.4" xml:space="preserve">
<g id="Your_Icon_2_">
	<path fill="#3398CB" d="M0,0v26.4h40V0H0z M1.6,3.3h26.8v21.4H1.6V3.3z M38.4,24.7h-8.2V3.3h8.2V24.7z"/>
	<rect x="30.9" y="4.1" fill="#3398CB" width="1.6" height="1.6"/>
	<rect x="33.4" y="4.1" fill="#3398CB" width="2.5" height="1.6"/>
	<rect x="33.4" y="6.6" fill="#3398CB" width="4.1" height="1.6"/>
	<rect x="30.9" y="6.6" fill="#3398CB" width="1.6" height="1.6"/>
	<path fill="#3398CB" d="M3.3,13.1l2.4-8.2h1.1l-2.4,8.2H3.3z"/>
	<path fill="#3398CB" d="M11,5.5L9.8,6.9l0,0l1.8-0.4v1.1L9.8,7.4l0,0L11,8.9l-1,0.6L9.4,7.7l0,0L8.7,9.4l-1-0.6L9,7.4v0L7.2,7.8
		V6.6L8.9,7l0,0L7.7,5.5l1-0.6l0.6,1.7h0L10,4.9L11,5.5z"/>
</g>
</svg>
