<?xml version="1.0" encoding="utf-8"?>
<!-- Generator: Adobe Illustrator 18.0.0, SVG Export Plug-In . SVG Version: 6.00 Build 0)  -->
<!DOCTYPE svg PUBLIC "-//W3C//DTD SVG 1.1//EN" "http://www.w3.org/Graphics/SVG/1.1/DTD/svg11.dtd">
<svg version="1.1" id="Layer_1" xmlns="http://www.w3.org/2000/svg" xmlns:xlink="http://www.w3.org/1999/xlink" x="0px" y="0px"
	 viewBox="0 0 30 30" enable-background="new 0 0 30 30" xml:space="preserve">
<path fill="#3398CB" d="M30,16.8v-3.8l-4.5-1.9c-0.1-0.4-0.3-0.7-0.4-1l1.8-4.5L24.3,3l-4.5,1.8c-0.3-0.2-0.7-0.3-1-0.4L16.8,0h-3.8
	l-1.9,4.4c-0.4,0.1-0.7,0.3-1.1,0.4L5.7,3.1L3,5.7l1.8,4.4c-0.2,0.4-0.3,0.7-0.5,1.1L0,13.2v3.8l4.4,1.8c0.1,0.4,0.3,0.8,0.5,1.1
	l-1.8,4.4L5.7,27l4.4-1.8c0.4,0.2,0.7,0.3,1.1,0.4l1.9,4.4h3.8l1.9-4.5c0.4-0.1,0.7-0.3,1-0.4l4.5,1.8l2.7-2.7l-1.8-4.5
	c0.2-0.3,0.3-0.7,0.4-1L30,16.8z M15,20.6c-3.1,0-5.6-2.5-5.6-5.6s2.5-5.6,5.6-5.6s5.6,2.5,5.6,5.6S18.1,20.6,15,20.6z"/>
</svg>
