<?xml version="1.0" encoding="utf-8"?>
<!-- Generator: Adobe Illustrator 18.0.0, SVG Export Plug-In . SVG Version: 6.00 Build 0)  -->
<!DOCTYPE svg PUBLIC "-//W3C//DTD SVG 1.1//EN" "http://www.w3.org/Graphics/SVG/1.1/DTD/svg11.dtd">
<svg version="1.1" id="Layer_1" xmlns="http://www.w3.org/2000/svg" xmlns:xlink="http://www.w3.org/1999/xlink" x="0px" y="0px"
	 viewBox="0 0 15.7 31.4" enable-background="new 0 0 15.7 31.4" xml:space="preserve">
<path fill="#3398CB" d="M13.2,0.2h-0.4V0.2c0-0.1-0.1-0.2-0.2-0.2h-2.5C10.1,0,10,0.1,10,0.2v0.1H2.7c-1.3,0-2.4,1.1-2.4,2.4V3H0.2
	C0.1,3,0,3,0,3.1v1.2c0,0.1,0.1,0.2,0.2,0.2h0.1v2.2H0.2C0.1,6.7,0,6.7,0,6.8v0.8c0,0.1,0.1,0.2,0.2,0.2h0.1v1.3H0.2
	C0.1,9.1,0,9.2,0,9.3v0.8c0,0.1,0.1,0.2,0.2,0.2h0.1v18.6c0,1.4,1.1,2.4,2.4,2.4h10.5c1.3,0,2.4-1.1,2.4-2.4V2.7
	C15.7,1.3,14.6,0.2,13.2,0.2z M6.7,2.6H9c0.2,0,0.3,0.1,0.3,0.3C9.3,3,9.1,3.2,9,3.2H6.7C6.6,3.2,6.4,3,6.4,2.9
	C6.4,2.7,6.6,2.6,6.7,2.6z M5.6,2.6c0.1,0,0.3,0.1,0.3,0.3c0,0.1-0.1,0.3-0.3,0.3C5.4,3.2,5.3,3,5.3,2.9C5.3,2.8,5.4,2.6,5.6,2.6z
	 M7.9,30c-0.8,0-1.5-0.7-1.5-1.5c0-0.8,0.7-1.5,1.5-1.5c0.8,0,1.5,0.7,1.5,1.5C9.4,29.3,8.7,30,7.9,30z M14.7,25.7H1V5.1h13.7V25.7z
	"/>
</svg>
