<?xml version="1.0" encoding="utf-8"?>
<!-- Generator: Adobe Illustrator 18.0.0, SVG Export Plug-In . SVG Version: 6.00 Build 0)  -->
<!DOCTYPE svg PUBLIC "-//W3C//DTD SVG 1.1//EN" "http://www.w3.org/Graphics/SVG/1.1/DTD/svg11.dtd">
<svg version="1.1" id="Layer_1" xmlns="http://www.w3.org/2000/svg" xmlns:xlink="http://www.w3.org/1999/xlink" x="0px" y="0px"
	 viewBox="0 0 30.7 35.2" enable-background="new 0 0 30.7 35.2" xml:space="preserve">
<g>
	<polygon fill="#333" points="13.3,12.7 17.6,15.2 21.8,12.7 17.6,10.2 	"/>
	<polygon fill="#333" points="13.2,12.8 13.2,17.7 17.5,20.1 17.5,20.1 17.5,15.2 	"/>
	<polygon fill="#333" points="21.7,12.7 21.7,17.6 21.7,17.6 17.5,20.1 17.5,15.2 21.7,12.7 	"/>
	<line fill="none" stroke="#333" stroke-miterlimit="10" x1="26" y1="10.2" x2="26" y2="5.3"/>
	<line fill="none" stroke="#333" stroke-miterlimit="10" x1="26" y1="15.2" x2="26" y2="15.2"/>
	<line fill="none" stroke="#333" stroke-miterlimit="10" x1="26" y1="10.2" x2="26" y2="10.2"/>
	<line fill="none" stroke="#333" stroke-miterlimit="10" x1="26" y1="25" x2="26" y2="25"/>
	<line fill="none" stroke="#333" stroke-miterlimit="10" x1="26" y1="20.1" x2="26" y2="20.1"/>
	<line fill="none" stroke="#333" stroke-miterlimit="10" x1="26" y1="29.9" x2="26" y2="25"/>
	<line fill="none" stroke="#333" stroke-miterlimit="10" x1="26" y1="5.3" x2="26" y2="5.3"/>
	<line fill="none" stroke="#333" stroke-miterlimit="10" x1="26" y1="25" x2="26" y2="20.1"/>
	<line fill="none" stroke="#333" stroke-miterlimit="10" x1="26" y1="15.2" x2="26" y2="20.1"/>
	<line fill="none" stroke="#333" stroke-miterlimit="10" x1="21.7" y1="12.7" x2="21.7" y2="17.6"/>
	<line fill="none" stroke="#333" stroke-miterlimit="10" x1="21.7" y1="27.4" x2="21.7" y2="22.5"/>
	<line fill="none" stroke="#333" stroke-miterlimit="10" x1="21.7" y1="12.7" x2="21.7" y2="7.8"/>
	<line fill="none" stroke="#333" stroke-miterlimit="10" x1="21.7" y1="27.4" x2="21.7" y2="27.4"/>
	<line fill="none" stroke="#333" stroke-miterlimit="10" x1="21.7" y1="32.3" x2="21.7" y2="32.3"/>
	<line fill="none" stroke="#333" stroke-miterlimit="10" x1="21.7" y1="27.4" x2="21.7" y2="32.3"/>
	<line fill="none" stroke="#333" stroke-miterlimit="10" x1="21.7" y1="7.8" x2="21.7" y2="7.8"/>
	<line fill="none" stroke="#333" stroke-miterlimit="10" x1="21.7" y1="12.7" x2="21.7" y2="12.7"/>
	<line fill="none" stroke="#333" stroke-miterlimit="10" x1="21.7" y1="22.5" x2="21.7" y2="22.5"/>
	<line fill="none" stroke="#333" stroke-miterlimit="10" x1="21.7" y1="2.9" x2="21.7" y2="2.9"/>
	<line fill="none" stroke="#333" stroke-miterlimit="10" x1="21.7" y1="17.6" x2="21.7" y2="17.6"/>
	<line fill="none" stroke="#333" stroke-miterlimit="10" x1="17.5" y1="5.3" x2="17.5" y2="5.3"/>
	<line fill="none" stroke="#333" stroke-miterlimit="10" x1="17.5" y1="5.3" x2="17.5" y2="10.2"/>
	<line fill="none" stroke="#333" stroke-miterlimit="10" x1="17.5" y1="25" x2="17.5" y2="20.1"/>
	<line fill="none" stroke="#333" stroke-miterlimit="10" x1="17.5" y1="10.2" x2="17.5" y2="10.2"/>
	<line fill="none" stroke="#333" stroke-miterlimit="10" x1="17.5" y1="34.8" x2="17.5" y2="34.8"/>
	<line fill="none" stroke="#333" stroke-miterlimit="10" x1="17.5" y1="20.1" x2="17.5" y2="20.1"/>
	<line fill="none" stroke="#333" stroke-miterlimit="10" x1="17.5" y1="20.1" x2="17.5" y2="15.2"/>
	<line fill="none" stroke="#333" stroke-miterlimit="10" x1="17.5" y1="0.4" x2="17.5" y2="0.4"/>
	<line fill="none" stroke="#333" stroke-miterlimit="10" x1="17.5" y1="34.8" x2="17.5" y2="29.9"/>
	<line fill="none" stroke="#333" stroke-miterlimit="10" x1="17.5" y1="15.2" x2="17.5" y2="15.2"/>
	<line fill="none" stroke="#333" stroke-miterlimit="10" x1="17.5" y1="29.9" x2="17.5" y2="29.9"/>
	<line fill="none" stroke="#333" stroke-miterlimit="10" x1="17.5" y1="25" x2="17.5" y2="25"/>
	<line fill="none" stroke="#333" stroke-miterlimit="10" x1="13.2" y1="2.9" x2="13.2" y2="7.8"/>
	<line fill="none" stroke="#333" stroke-miterlimit="10" x1="13.2" y1="22.5" x2="13.2" y2="27.4"/>
	<line fill="none" stroke="#333" stroke-miterlimit="10" x1="13.2" y1="12.7" x2="13.2" y2="17.6"/>
	<line fill="none" stroke="#333" stroke-miterlimit="10" x1="13.2" y1="32.3" x2="13.2" y2="32.3"/>
	<line fill="none" stroke="#333" stroke-miterlimit="10" x1="13.2" y1="32.3" x2="13.2" y2="27.4"/>
	<line fill="none" stroke="#333" stroke-miterlimit="10" x1="13.2" y1="12.7" x2="13.2" y2="12.7"/>
	<line fill="none" stroke="#333" stroke-miterlimit="10" x1="13.2" y1="17.6" x2="13.2" y2="17.6"/>
	<line fill="none" stroke="#333" stroke-miterlimit="10" x1="13.2" y1="7.8" x2="13.2" y2="7.8"/>
	<line fill="none" stroke="#333" stroke-miterlimit="10" x1="13.2" y1="22.5" x2="13.2" y2="22.5"/>
	<line fill="none" stroke="#333" stroke-miterlimit="10" x1="13.2" y1="27.4" x2="13.2" y2="27.4"/>
	<line fill="none" stroke="#333" stroke-miterlimit="10" x1="9" y1="34.8" x2="9" y2="34.8"/>
	<line fill="none" stroke="#333" stroke-miterlimit="10" x1="9" y1="29.9" x2="9" y2="34.8"/>
	<line fill="none" stroke="#333" stroke-miterlimit="10" x1="9" y1="20.1" x2="9" y2="25"/>
	<line fill="none" stroke="#333" stroke-miterlimit="10" x1="9" y1="10.2" x2="9" y2="15.2"/>
	<line fill="none" stroke="#333" stroke-miterlimit="10" x1="9" y1="25" x2="9" y2="25"/>
	<line fill="none" stroke="#333" stroke-miterlimit="10" x1="9" y1="20.1" x2="9" y2="20.1"/>
	<line fill="none" stroke="#333" stroke-miterlimit="10" x1="9" y1="29.9" x2="9" y2="29.9"/>
	<line fill="none" stroke="#333" stroke-miterlimit="10" x1="9" y1="15.2" x2="9" y2="15.2"/>
	<line fill="none" stroke="#333" stroke-miterlimit="10" x1="4.7" y1="22.5" x2="4.7" y2="22.5"/>
	<line fill="none" stroke="#333" stroke-miterlimit="10" x1="4.7" y1="27.4" x2="4.7" y2="27.4"/>
	<line fill="none" stroke="#333" stroke-miterlimit="10" x1="4.7" y1="32.3" x2="4.7" y2="27.4"/>
	<line fill="none" stroke="#333" stroke-miterlimit="10" x1="4.7" y1="32.3" x2="4.7" y2="32.3"/>
	<line fill="none" stroke="#333" stroke-miterlimit="10" x1="4.7" y1="17.6" x2="4.7" y2="22.5"/>
	<line fill="none" stroke="#333" stroke-miterlimit="10" x1="0.5" y1="25" x2="0.5" y2="29.9"/>
	<line fill="none" stroke="#333" stroke-miterlimit="10" x1="0.5" y1="29.9" x2="0.5" y2="29.9"/>
	<line fill="none" stroke="#333" stroke-miterlimit="10" x1="30.2" y1="17.6" x2="30.2" y2="12.7"/>
	<line fill="none" stroke="#333" stroke-miterlimit="10" x1="30.2" y1="27.4" x2="30.2" y2="22.5"/>
	<line fill="none" stroke="#333" stroke-miterlimit="10" x1="30.2" y1="17.6" x2="30.2" y2="22.5"/>
	<line fill="none" stroke="#333" stroke-miterlimit="10" x1="13.2" y1="32.3" x2="13.2" y2="32.3"/>
	<line fill="none" stroke="#333" stroke-miterlimit="10" x1="13.2" y1="32.3" x2="9" y2="34.8"/>
	<line fill="none" stroke="#333" stroke-miterlimit="10" x1="9" y1="34.8" x2="9" y2="34.8"/>
	<line fill="none" stroke="#333" stroke-miterlimit="10" x1="17.5" y1="29.9" x2="17.5" y2="29.9"/>
	<line fill="none" stroke="#333" stroke-miterlimit="10" x1="21.7" y1="27.4" x2="21.7" y2="27.4"/>
	<line fill="none" stroke="#333" stroke-miterlimit="10" x1="17.5" y1="29.9" x2="21.7" y2="27.4"/>
	<line fill="none" stroke="#333" stroke-miterlimit="10" x1="30.2" y1="22.5" x2="26" y2="25"/>
	<line fill="none" stroke="#333" stroke-miterlimit="10" x1="21.7" y1="27.4" x2="26" y2="25"/>
	<line fill="none" stroke="#333" stroke-miterlimit="10" x1="26" y1="25" x2="26" y2="25"/>
	<line fill="none" stroke="#333" stroke-miterlimit="10" x1="26" y1="20.1" x2="30.2" y2="17.6"/>
	<line fill="none" stroke="#333" stroke-miterlimit="10" x1="21.7" y1="22.5" x2="26" y2="20.1"/>
	<line fill="none" stroke="#333" stroke-miterlimit="10" x1="9" y1="29.9" x2="13.2" y2="27.4"/>
	<line fill="none" stroke="#333" stroke-miterlimit="10" x1="21.7" y1="22.5" x2="21.7" y2="22.5"/>
	<line fill="none" stroke="#333" stroke-miterlimit="10" x1="13.2" y1="27.4" x2="17.5" y2="25"/>
	<line fill="none" stroke="#333" stroke-miterlimit="10" x1="13.2" y1="27.4" x2="13.2" y2="27.4"/>
	<line fill="none" stroke="#333" stroke-miterlimit="10" x1="26" y1="20.1" x2="26" y2="20.1"/>
	<line fill="none" stroke="#333" stroke-miterlimit="10" x1="4.7" y1="32.3" x2="4.7" y2="32.3"/>
	<line fill="none" stroke="#333" stroke-miterlimit="10" x1="17.5" y1="25" x2="17.5" y2="25"/>
	<line fill="none" stroke="#333" stroke-miterlimit="10" x1="9" y1="29.9" x2="9" y2="29.9"/>
	<line fill="none" stroke="#333" stroke-miterlimit="10" x1="13.2" y1="22.5" x2="13.2" y2="22.5"/>
	<line fill="none" stroke="#333" stroke-miterlimit="10" x1="0.5" y1="29.9" x2="0.5" y2="29.9"/>
	<line fill="none" stroke="#333" stroke-miterlimit="10" x1="17.5" y1="20.1" x2="17.5" y2="20.1"/>
	<line fill="none" stroke="#333" stroke-miterlimit="10" x1="4.7" y1="27.4" x2="9" y2="25"/>
	<line fill="none" stroke="#333" stroke-miterlimit="10" x1="9" y1="25" x2="9" y2="25"/>
	<line fill="none" stroke="#333" stroke-miterlimit="10" x1="21.7" y1="17.6" x2="21.7" y2="17.6"/>
	<line fill="none" stroke="#333" stroke-miterlimit="10" x1="4.7" y1="27.4" x2="4.7" y2="27.4"/>
	<line fill="none" stroke="#333" stroke-miterlimit="10" x1="13.2" y1="22.5" x2="17.5" y2="20.1"/>
	<line fill="none" stroke="#333" stroke-miterlimit="10" x1="26" y1="15.2" x2="26" y2="15.2"/>
	<line fill="none" stroke="#333" stroke-miterlimit="10" x1="17.5" y1="20.1" x2="21.7" y2="17.6"/>
	<line fill="none" stroke="#333" stroke-miterlimit="10" x1="26" y1="15.2" x2="30.2" y2="12.7"/>
	<line fill="none" stroke="#333" stroke-miterlimit="10" x1="4.7" y1="22.5" x2="4.7" y2="22.5"/>
	<line fill="none" stroke="#333" stroke-miterlimit="10" x1="4.7" y1="22.5" x2="0.5" y2="25"/>
	<line fill="none" stroke="#333" stroke-miterlimit="10" x1="9" y1="20.1" x2="13.2" y2="17.6"/>
	<line fill="none" stroke="#333" stroke-miterlimit="10" x1="13.2" y1="17.6" x2="13.2" y2="17.6"/>
	<line fill="none" stroke="#333" stroke-miterlimit="10" x1="9" y1="20.1" x2="9" y2="20.1"/>
	<line fill="none" stroke="#333" stroke-miterlimit="10" x1="26" y1="10.2" x2="26" y2="10.2"/>
	<line fill="none" stroke="#333" stroke-miterlimit="10" x1="21.7" y1="12.7" x2="21.7" y2="12.7"/>
	<line fill="none" stroke="#333" stroke-miterlimit="10" x1="26" y1="10.2" x2="21.7" y2="12.7"/>
	<line fill="none" stroke="#333" stroke-miterlimit="10" x1="17.5" y1="15.2" x2="21.7" y2="12.7"/>
	<line fill="none" stroke="#333" stroke-miterlimit="10" x1="17.5" y1="15.2" x2="17.5" y2="15.2"/>
	<line fill="none" stroke="#333" stroke-miterlimit="10" x1="17.5" y1="10.2" x2="17.5" y2="10.2"/>
	<line fill="none" stroke="#333" stroke-miterlimit="10" x1="4.7" y1="17.6" x2="9" y2="15.2"/>
	<line fill="none" stroke="#333" stroke-miterlimit="10" x1="21.7" y1="7.8" x2="21.7" y2="7.8"/>
	<line fill="none" stroke="#333" stroke-miterlimit="10" x1="17.5" y1="10.2" x2="13.2" y2="12.7"/>
	<line fill="none" stroke="#333" stroke-miterlimit="10" x1="9" y1="15.2" x2="9" y2="15.2"/>
	<line fill="none" stroke="#333" stroke-miterlimit="10" x1="26" y1="5.3" x2="26" y2="5.3"/>
	<line fill="none" stroke="#333" stroke-miterlimit="10" x1="26" y1="5.3" x2="21.7" y2="7.8"/>
	<line fill="none" stroke="#333" stroke-miterlimit="10" x1="13.2" y1="12.7" x2="13.2" y2="12.7"/>
	<line fill="none" stroke="#333" stroke-miterlimit="10" x1="13.2" y1="7.8" x2="9" y2="10.2"/>
	<line fill="none" stroke="#333" stroke-miterlimit="10" x1="17.5" y1="5.3" x2="17.5" y2="5.3"/>
	<line fill="none" stroke="#333" stroke-miterlimit="10" x1="21.7" y1="2.9" x2="17.5" y2="5.3"/>
	<line fill="none" stroke="#333" stroke-miterlimit="10" x1="13.2" y1="7.8" x2="13.2" y2="7.8"/>
	<line fill="none" stroke="#333" stroke-miterlimit="10" x1="21.7" y1="2.9" x2="21.7" y2="2.9"/>
	<line fill="none" stroke="#333" stroke-miterlimit="10" x1="13.2" y1="2.9" x2="17.5" y2="0.4"/>
	<line fill="none" stroke="#333" stroke-miterlimit="10" x1="17.5" y1="0.4" x2="17.5" y2="0.4"/>
	<line fill="none" stroke="#333" stroke-miterlimit="10" x1="17.5" y1="34.8" x2="21.7" y2="32.3"/>
	<line fill="none" stroke="#333" stroke-miterlimit="10" x1="17.5" y1="34.8" x2="17.5" y2="34.8"/>
	<line fill="none" stroke="#333" stroke-miterlimit="10" x1="26" y1="29.9" x2="30.2" y2="27.4"/>
	<line fill="none" stroke="#333" stroke-miterlimit="10" x1="26" y1="29.9" x2="21.7" y2="32.3"/>
	<line fill="none" stroke="#333" stroke-miterlimit="10" x1="21.7" y1="32.3" x2="21.7" y2="32.3"/>
	<line fill="none" stroke="#333" stroke-miterlimit="10" x1="0.5" y1="29.9" x2="4.7" y2="32.3"/>
	<line fill="none" stroke="#333" stroke-miterlimit="10" x1="0.5" y1="29.9" x2="0.5" y2="29.9"/>
	<line fill="none" stroke="#333" stroke-miterlimit="10" x1="4.7" y1="32.3" x2="4.7" y2="32.3"/>
	<line fill="none" stroke="#333" stroke-miterlimit="10" x1="9" y1="34.8" x2="4.7" y2="32.3"/>
	<line fill="none" stroke="#333" stroke-miterlimit="10" x1="9" y1="34.8" x2="9" y2="34.8"/>
	<line fill="none" stroke="#333" stroke-miterlimit="10" x1="21.7" y1="7.8" x2="17.5" y2="5.3"/>
	<line fill="none" stroke="#333" stroke-miterlimit="10" x1="21.7" y1="7.8" x2="21.7" y2="7.8"/>
	<line fill="none" stroke="#333" stroke-miterlimit="10" x1="30.2" y1="12.7" x2="26" y2="10.2"/>
	<line fill="none" stroke="#333" stroke-miterlimit="10" x1="17.5" y1="5.3" x2="17.5" y2="5.3"/>
	<line fill="none" stroke="#333" stroke-miterlimit="10" x1="17.5" y1="5.3" x2="13.2" y2="2.9"/>
	<line fill="none" stroke="#333" stroke-miterlimit="10" x1="26" y1="10.2" x2="26" y2="10.2"/>
	<line fill="none" stroke="#333" stroke-miterlimit="10" x1="13.2" y1="7.8" x2="13.2" y2="7.8"/>
	<line fill="none" stroke="#333" stroke-miterlimit="10" x1="17.5" y1="10.2" x2="17.5" y2="10.2"/>
	<line fill="none" stroke="#333" stroke-miterlimit="10" x1="17.5" y1="10.2" x2="13.2" y2="7.8"/>
	<line fill="none" stroke="#333" stroke-miterlimit="10" x1="26" y1="15.2" x2="21.7" y2="12.7"/>
	<line fill="none" stroke="#333" stroke-miterlimit="10" x1="26" y1="15.2" x2="26" y2="15.2"/>
	<line fill="none" stroke="#333" stroke-miterlimit="10" x1="21.7" y1="12.7" x2="21.7" y2="12.7"/>
	<line fill="none" stroke="#333" stroke-miterlimit="10" x1="21.7" y1="12.7" x2="17.5" y2="10.2"/>
	<line fill="none" stroke="#333" stroke-miterlimit="10" x1="17.5" y1="15.2" x2="17.5" y2="15.2"/>
	<line fill="none" stroke="#333" stroke-miterlimit="10" x1="17.5" y1="15.2" x2="13.2" y2="12.7"/>
	<line fill="none" stroke="#333" stroke-miterlimit="10" x1="13.2" y1="12.7" x2="13.2" y2="12.7"/>
	<line fill="none" stroke="#333" stroke-miterlimit="10" x1="26" y1="20.1" x2="21.7" y2="17.6"/>
	<line fill="none" stroke="#333" stroke-miterlimit="10" x1="13.2" y1="12.7" x2="9" y2="10.2"/>
	<line fill="none" stroke="#333" stroke-miterlimit="10" x1="21.7" y1="17.6" x2="21.7" y2="17.6"/>
	<line fill="none" stroke="#333" stroke-miterlimit="10" x1="26" y1="20.1" x2="26" y2="20.1"/>
	<line fill="none" stroke="#333" stroke-miterlimit="10" x1="26" y1="25" x2="26" y2="25"/>
	<path fill="none" stroke="#333" stroke-miterlimit="10" d="M9,15.2"/>
	<line fill="none" stroke="#333" stroke-miterlimit="10" x1="9" y1="15.2" x2="9" y2="15.2"/>
	<line fill="none" stroke="#333" stroke-miterlimit="10" x1="13.2" y1="17.6" x2="13.2" y2="17.6"/>
	<line fill="none" stroke="#333" stroke-miterlimit="10" x1="21.7" y1="22.5" x2="21.7" y2="22.5"/>
	<line fill="none" stroke="#333" stroke-miterlimit="10" x1="9" y1="15.2" x2="13.2" y2="17.6"/>
	<line fill="none" stroke="#333" stroke-miterlimit="10" x1="17.5" y1="20.1" x2="13.2" y2="17.6"/>
	<line fill="none" stroke="#333" stroke-miterlimit="10" x1="21.7" y1="22.5" x2="17.5" y2="20.1"/>
	<line fill="none" stroke="#333" stroke-miterlimit="10" x1="17.5" y1="20.1" x2="17.5" y2="20.1"/>
	<line fill="none" stroke="#333" stroke-miterlimit="10" x1="13.2" y1="22.5" x2="13.2" y2="22.5"/>
	<line fill="none" stroke="#333" stroke-miterlimit="10" x1="9" y1="20.1" x2="9" y2="20.1"/>
	<line fill="none" stroke="#333" stroke-miterlimit="10" x1="4.7" y1="17.6" x2="9" y2="20.1"/>
	<line fill="none" stroke="#333" stroke-miterlimit="10" x1="17.5" y1="25" x2="17.5" y2="25"/>
	<line fill="none" stroke="#333" stroke-miterlimit="10" x1="21.7" y1="27.4" x2="21.7" y2="27.4"/>
	<line fill="none" stroke="#333" stroke-miterlimit="10" x1="13.2" y1="22.5" x2="9" y2="20.1"/>
	<line fill="none" stroke="#333" stroke-miterlimit="10" x1="21.7" y1="27.4" x2="17.5" y2="25"/>
	<line fill="none" stroke="#333" stroke-miterlimit="10" x1="21.7" y1="32.3" x2="21.7" y2="32.3"/>
	<line fill="none" stroke="#333" stroke-miterlimit="10" x1="9" y1="25" x2="9" y2="25"/>
	<line fill="none" stroke="#333" stroke-miterlimit="10" x1="13.2" y1="27.4" x2="13.2" y2="27.4"/>
	<line fill="none" stroke="#333" stroke-miterlimit="10" x1="9" y1="25" x2="4.7" y2="22.5"/>
	<line fill="none" stroke="#333" stroke-miterlimit="10" x1="13.2" y1="27.4" x2="17.5" y2="29.9"/>
	<line fill="none" stroke="#333" stroke-miterlimit="10" x1="13.2" y1="27.4" x2="9" y2="25"/>
	<line fill="none" stroke="#333" stroke-miterlimit="10" x1="4.7" y1="22.5" x2="4.7" y2="22.5"/>
	<line fill="none" stroke="#333" stroke-miterlimit="10" x1="17.5" y1="29.9" x2="17.5" y2="29.9"/>
	<line fill="none" stroke="#333" stroke-miterlimit="10" x1="9" y1="29.9" x2="4.7" y2="27.4"/>
	<line fill="none" stroke="#333" stroke-miterlimit="10" x1="4.7" y1="27.4" x2="4.7" y2="27.4"/>
	<line fill="none" stroke="#333" stroke-miterlimit="10" x1="13.2" y1="32.3" x2="13.2" y2="32.3"/>
	<line fill="none" stroke="#333" stroke-miterlimit="10" x1="4.7" y1="27.4" x2="0.5" y2="25"/>
	<line fill="none" stroke="#333" stroke-miterlimit="10" x1="17.5" y1="34.8" x2="17.5" y2="34.8"/>
	<line fill="none" stroke="#333" stroke-miterlimit="10" x1="9" y1="29.9" x2="9" y2="29.9"/>
	<line fill="none" stroke="#333" stroke-miterlimit="10" x1="13.2" y1="32.3" x2="17.5" y2="34.8"/>
	<line fill="none" stroke="#333" stroke-miterlimit="10" x1="26" y1="5.3" x2="26" y2="5.3"/>
	<line fill="none" stroke="#333" stroke-miterlimit="10" x1="21.7" y1="2.9" x2="21.7" y2="2.9"/>
	<line fill="none" stroke="#333" stroke-miterlimit="10" x1="17.5" y1="0.4" x2="17.5" y2="0.4"/>
	<line fill="none" stroke="#333" stroke-miterlimit="10" x1="21.7" y1="2.9" x2="26" y2="5.3"/>
	<line fill="none" stroke="#333" stroke-miterlimit="10" x1="21.7" y1="2.9" x2="17.5" y2="0.4"/>
</g>
</svg>
